<?xml version="1.0" encoding="utf-8"?>
<!-- Generator: Adobe Illustrator 16.0.0, SVG Export Plug-In . SVG Version: 6.00 Build 0)  -->
<!DOCTYPE svg PUBLIC "-//W3C//DTD SVG 1.1//EN" "http://www.w3.org/Graphics/SVG/1.1/DTD/svg11.dtd">
<svg version="1.1" xmlns="http://www.w3.org/2000/svg" xmlns:xlink="http://www.w3.org/1999/xlink" x="0px" y="0px" width="1920px"
	 height="1080px" viewBox="0 0 1920 1080" enable-background="new 0 0 1920 1080" xml:space="preserve">
<g id="desktop">
	<path fill="#222B39" d="M1580.569,730.01c0,24.284-19.688,43.972-43.972,43.972H479.802c-24.285,0-43.973-19.688-43.973-43.972
		V57.236c0-24.285,19.688-43.973,43.973-43.973h1056.796c24.284,0,43.972,19.688,43.972,43.973V730.01z"/>
	<rect x="490.202" y="69.108" fill="#FFFFFF" width="1035.49" height="646.357"/>
	<rect x="545.164" y="129.938" fill="#F15424" width="925.566" height="82.815"/>
	<rect x="545.164" y="265.884" fill="#F15424" width="274.095" height="173.314"/>
	<rect x="870.9" y="265.884" fill="#F15424" width="274.096" height="173.314"/>
	<rect x="1196.635" y="265.884" fill="#F15424" width="274.096" height="173.314"/>
	<rect x="545.164" y="485.744" fill="#F15424" width="274.095" height="173.314"/>
	<rect x="870.9" y="485.744" fill="#F15424" width="274.096" height="173.314"/>
	<rect x="1196.635" y="485.744" fill="#F15424" width="274.096" height="173.314"/>
	<rect x="466.609" y="773.982" fill="#E6E5E5" width="1059.729" height="105.533"/>
	<polygon fill="#E6E5E5" points="879.947,879.515 851.365,1040.012 1085.149,1040.012 	"/>
	<polygon fill="#CCCBCA" points="1166.498,1040.012 1085.149,1040.012 879.947,879.515 1139.384,879.515 	"/>
	<path fill="#D9D8D7" d="M1254.443,1064.93v-5.862c0-10.523-8.53-19.056-19.055-19.056H783.941
		c-10.523,0-19.055,8.532-19.055,19.056v5.862H1254.443z"/>
</g>
<g id="pad">
	<path fill="#222B39" d="M733.518,1019.6c0,24.284-19.687,43.972-43.972,43.972h-390.24c-24.285,0-43.972-19.688-43.972-43.972
		V412.819c0-24.285,19.687-43.972,43.972-43.972h390.24c24.285,0,43.972,19.687,43.972,43.972V1019.6z"/>
	<rect x="293.064" y="458.953" fill="#FFFFFF" width="400.88" height="518.877"/>
	<rect x="325.317" y="491.03" fill="#F15424" width="337.848" height="71.111"/>
	<rect x="325.317" y="600.594" fill="#F15424" width="157.572" height="157.02"/>
	<rect x="501.206" y="600.594" fill="#F15424" width="157.572" height="157.02"/>
	<rect x="325.317" y="791.139" fill="#F15424" width="157.572" height="157.021"/>
	<rect x="501.206" y="791.139" fill="#F15424" width="157.572" height="157.021"/>
	<circle fill="#3E4959" cx="495.904" cy="413.868" r="17.772"/>
	<circle fill="#FDFDFD" cx="495.904" cy="413.868" r="7.329"/>
	<path fill="#3E4959" d="M553.435,1021.691c0,8.095-6.563,14.657-14.657,14.657h-85.746c-8.095,0-14.657-6.563-14.657-14.657l0,0
		c0-8.095,6.562-14.657,14.657-14.657h85.746C546.872,1007.033,553.435,1013.596,553.435,1021.691L553.435,1021.691z"/>
</g>
<g id="mobile">
	<path fill="#222B39" d="M1614.636,1032.926c0,19.428-15.75,35.178-35.178,35.178h-201.074c-19.429,0-35.178-15.75-35.178-35.178
		V607.579c0-19.428,15.749-35.177,35.178-35.177h201.074c19.428,0,35.178,15.749,35.178,35.177V1032.926z"/>
	<rect x="1364.13" y="644.019" fill="#FFFFFF" width="233.54" height="347.87"/>
	<rect x="1381.719" y="662.585" fill="#F15424" width="197.385" height="57.652"/>
	<rect x="1381.719" y="739.292" fill="#F15424" width="197.385" height="106.999"/>
	<rect x="1381.719" y="866.811" fill="#F15424" width="197.385" height="105.533"/>
	<path fill="#3E4959" d="M1488.082,606.979c0,5.062-4.102,9.161-9.16,9.161c-5.063,0-9.162-4.1-9.162-9.161
		c0-5.059,4.1-9.16,9.162-9.16C1483.98,597.819,1488.082,601.92,1488.082,606.979z"/>
	<circle fill="#242D3C" cx="1478.921" cy="606.979" r="3.604"/>
	<path fill="#3E4959" d="M1511.533,1029.019c0,6.072-4.92,10.993-10.992,10.993h-43.238c-6.073,0-10.993-4.921-10.993-10.993l0,0
		c0-6.071,4.92-10.993,10.993-10.993h43.238C1506.613,1018.026,1511.533,1022.948,1511.533,1029.019L1511.533,1029.019z"/>
</g>
</svg>
