<?xml version="1.0" encoding="utf-8"?>
<!-- Generator: Adobe Illustrator 16.0.0, SVG Export Plug-In . SVG Version: 6.00 Build 0)  -->
<!DOCTYPE svg PUBLIC "-//W3C//DTD SVG 1.1//EN" "http://www.w3.org/Graphics/SVG/1.1/DTD/svg11.dtd">
<svg version="1.1" id="Layer_1" opacity="0.8" xmlns="http://www.w3.org/2000/svg" xmlns:xlink="http://www.w3.org/1999/xlink"
	 x="0px" y="0px" width="512px" height="512px" viewBox="0 0 512 512" enable-background="new 0 0 512 512" xml:space="preserve">
<path fill="#222B39" d="M492.394,364.035c0,8.84-7.167,16.006-16.007,16.006H91.707c-8.839,0-16.006-7.166-16.006-16.006V119.142
	c0-8.84,7.167-16.006,16.006-16.006h384.68c8.84,0,16.007,7.166,16.007,16.006V364.035z"/>
<rect x="95.493" y="123.463" fill="#FFFFFF" width="376.924" height="235.278"/>
<rect x="115.5" y="145.606" fill="#F15424" width="336.912" height="30.145"/>
<rect x="115.5" y="195.091" fill="#F15424" width="99.772" height="63.088"/>
<rect x="234.069" y="195.091" fill="#F15424" width="99.771" height="63.088"/>
<rect x="352.638" y="195.091" fill="#F15424" width="99.773" height="63.088"/>
<rect x="115.5" y="275.121" fill="#F15424" width="99.772" height="63.088"/>
<rect x="234.069" y="275.121" fill="#F15424" width="99.771" height="63.088"/>
<rect x="352.638" y="275.121" fill="#F15424" width="99.773" height="63.088"/>
<rect x="86.905" y="380.041" fill="#E6E5E5" width="385.748" height="38.415"/>
<polygon fill="#E6E5E5" points="237.363,418.456 226.958,476.878 312.058,476.878 "/>
<polygon fill="#CCCBCA" points="341.669,476.878 312.058,476.878 237.363,418.456 331.799,418.456 "/>
<path fill="#D9D8D7" d="M373.682,485.948v-2.134c0-3.831-3.106-6.937-6.937-6.937h-164.33c-3.83,0-6.936,3.105-6.936,6.937v2.134
	H373.682z"/>
<path fill="#222B39" d="M184.062,469.448c0,8.839-7.166,16.005-16.006,16.005H26.006c-8.839,0-16.006-7.166-16.006-16.005V248.576
	c0-8.84,7.167-16.006,16.006-16.006h142.05c8.84,0,16.006,7.167,16.006,16.006V469.448z"/>
<rect x="23.734" y="265.369" fill="#FFFFFF" width="145.922" height="188.875"/>
<rect x="35.475" y="277.045" fill="#F15424" width="122.978" height="25.886"/>
<rect x="35.475" y="316.927" fill="#F15424" width="57.356" height="57.156"/>
<rect x="99.499" y="316.927" fill="#F15424" width="57.357" height="57.156"/>
<rect x="35.475" y="386.286" fill="#F15424" width="57.356" height="57.157"/>
<rect x="99.499" y="386.286" fill="#F15424" width="57.357" height="57.157"/>
<circle fill="#3E4959" cx="97.569" cy="248.958" r="6.469"/>
<circle fill="#FDFDFD" cx="97.569" cy="248.958" r="2.668"/>
<path fill="#3E4959" d="M118.51,470.209c0,2.946-2.389,5.335-5.335,5.335H81.962c-2.946,0-5.335-2.389-5.335-5.335l0,0
	c0-2.946,2.389-5.335,5.335-5.335h31.212C116.122,464.874,118.51,467.263,118.51,470.209L118.51,470.209z"/>
<path fill="#222B39" d="M504.793,474.299c0,7.071-5.732,12.805-12.805,12.805h-73.192c-7.071,0-12.805-5.733-12.805-12.805V319.47
	c0-7.071,5.733-12.805,12.805-12.805h73.192c7.072,0,12.805,5.733,12.805,12.805V474.299z"/>
<rect x="413.607" y="332.734" fill="#FFFFFF" width="85.011" height="126.626"/>
<rect x="420.011" y="339.492" fill="#F15424" width="71.849" height="20.985"/>
<rect x="420.011" y="367.414" fill="#F15424" width="71.849" height="38.948"/>
<rect x="420.011" y="413.832" fill="#F15424" width="71.849" height="38.414"/>
<circle fill="#3E4959" cx="455.392" cy="319.252" r="3.334"/>
<circle fill="#242D3C" cx="455.393" cy="319.252" r="1.312"/>
<path fill="#3E4959" d="M467.264,472.876c0,2.211-1.791,4.002-4.001,4.002h-15.74c-2.21,0-4.001-1.791-4.001-4.002l0,0
	c0-2.21,1.791-4.001,4.001-4.001h15.74C465.473,468.875,467.264,470.666,467.264,472.876L467.264,472.876z"/>
</svg>
