<svg xmlns="http://www.w3.org/2000/svg" xmlns:xlink="http://www.w3.org/1999/xlink" version="1.1" x="0px" y="0px" viewBox="0 0 100 100" enable-background="new 0 0 100 100" xml:space="preserve"><circle fill-rule="evenodd" clip-rule="evenodd" cx="32.788" cy="64.693" r="1.875"></circle><path fill-rule="evenodd" clip-rule="evenodd" d="M50.436,52.307h-1.352v-2.251c0-1.659-1.345-3.007-3.005-3.007h-4.822  l-18.584-8.157c-0.834-0.312-1.752,0.097-2.037,0.926c-0.288,0.83,0.152,1.755,0.985,2.075l11.761,5.156H19.047  c-1.663,0-3.004,1.348-3.004,3.007v20.269c0,1.658,1.341,3.008,3.004,3.008h27.032c1.66,0,3.005-1.35,3.005-3.008V59.812h1.352  c0.915,0,1.652-0.734,1.652-1.652v-4.201C52.088,53.041,51.351,52.307,50.436,52.307z M32.788,69.576  c-2.692,0-4.881-2.186-4.881-4.883c0-2.689,2.188-4.881,4.881-4.881c2.698,0,4.883,2.191,4.883,4.881  C37.671,67.391,35.486,69.576,32.788,69.576z M45.328,55.16c0,0.91-0.737,1.652-1.648,1.652H28.807l-2.251-2.252l-2.252,2.252  h-2.853c-0.919,0-1.656-0.742-1.656-1.652v-2.705c0-0.918,0.737-1.653,1.656-1.653H43.68c0.911,0,1.648,0.735,1.648,1.653V55.16z"></path><path fill-rule="evenodd" clip-rule="evenodd" d="M91.663,3.125H8.331C3.73,3.125,0,6.858,0,11.458v77.083  c0,4.6,3.73,8.334,8.331,8.334h83.332c4.604,0,8.337-3.734,8.337-8.334V11.458C100,6.858,96.267,3.125,91.663,3.125z M89.581,36.876  v11.875h-30.52V32.291h25.938C87.536,32.291,89.581,34.334,89.581,36.876z M59.062,51.248h30.52V68.08h-30.52V51.248z M53.125,13.54  c2.874,0,5.207,2.334,5.207,5.209c0,2.874-2.333,5.208-5.207,5.208c-2.878,0-5.212-2.334-5.212-5.208  C47.913,15.874,50.247,13.54,53.125,13.54z M34.375,13.54c2.874,0,5.207,2.334,5.207,5.209c0,2.874-2.333,5.208-5.207,5.208  c-2.879,0-5.213-2.334-5.213-5.208C29.162,15.874,31.496,13.54,34.375,13.54z M15.625,13.54c2.874,0,5.207,2.334,5.207,5.209  c0,2.874-2.333,5.208-5.207,5.208c-2.875,0-5.213-2.334-5.213-5.208C10.412,15.874,12.75,13.54,15.625,13.54z M10.412,81.875V36.876  c0-2.542,2.045-4.586,4.585-4.586h41.564v54.168H14.997C12.457,86.459,10.412,84.414,10.412,81.875z M84.999,86.459H59.062V70.584  h30.52v11.291C89.581,84.414,87.536,86.459,84.999,86.459z"></path><polygon fill-rule="evenodd" clip-rule="evenodd" points="62.759,45.143 85.78,45.143 85.78,42.639 68.134,42.639 72.923,37.854   62.759,37.854 67.549,42.639 62.759,42.639 "></polygon><rect x="62.852" y="54.855" fill-rule="evenodd" clip-rule="evenodd" width="2.5" height="9.689"></rect><rect x="67.938" y="54.855" fill-rule="evenodd" clip-rule="evenodd" width="2.497" height="9.689"></rect><rect x="73.02" y="54.855" fill-rule="evenodd" clip-rule="evenodd" width="2.5" height="9.689"></rect><rect x="78.102" y="54.855" fill-rule="evenodd" clip-rule="evenodd" width="2.501" height="9.689"></rect><rect x="83.183" y="54.855" fill-rule="evenodd" clip-rule="evenodd" width="2.501" height="9.689"></rect><path fill-rule="evenodd" clip-rule="evenodd" d="M66.151,76.104c-1.674,0-3.03,1.355-3.03,3.029s1.356,3.037,3.03,3.037  c1.679,0,3.034-1.363,3.034-3.037S67.83,76.104,66.151,76.104z"></path><path fill-rule="evenodd" clip-rule="evenodd" d="M74.268,76.104c-1.674,0-3.029,1.355-3.029,3.029s1.355,3.037,3.029,3.037  s3.034-1.363,3.034-3.037S75.941,76.104,74.268,76.104z"></path><path fill-rule="evenodd" clip-rule="evenodd" d="M82.384,76.104c-1.674,0-3.03,1.355-3.03,3.029s1.356,3.037,3.03,3.037  s3.033-1.363,3.033-3.037S84.058,76.104,82.384,76.104z"></path></svg>