<svg
  xmlns="http://www.w3.org/2000/svg"
  xmlns:xlink="http://www.w3.org/1999/xlink"
  version="1.1"
  x="0px" y="0px"
  viewBox="0 0 44 44" 
  style="enable-background:new 0 0 44 44;"
  xml:space="preserve">
  <g>
    <g><circle cx="22" cy="33" r="1"/><path d="M15,37c0-0.553-0.448-1-1-1H3c-0.551,0-1-0.448-1-1V9c0-0.552,0.449-1,1-1h4c0.552,0,1-0.447,1-1S7.552,6,7,6H3    C1.346,6,0,7.346,0,9v26c0,1.654,1.346,3,3,3h11C14.552,38,15,37.553,15,37z"/><path d="M40,29c0-0.553-0.448-1-1-1H5c-0.552,0-1,0.447-1,1s0.448,1,1,1h34C39.552,30,40,29.553,40,29z"/><path d="M41,6h-4c-0.552,0-1,0.447-1,1s0.448,1,1,1h4c0.551,0,1,0.448,1,1v26c0,0.552-0.449,1-1,1H18c-0.552,0-1,0.447-1,1v4    c0,0.552-0.449,1-1,1h-1c-0.552,0-1,0.447-1,1s0.448,1,1,1h14c0.552,0,1-0.447,1-1s-0.448-1-1-1h-1c-0.551,0-1-0.448-1-1v-3h14    c1.654,0,3-1.346,3-3V9C44,7.346,42.654,6,41,6z M18.816,42C18.928,41.686,19,41.352,19,41v-3h6v3c0,0.352,0.072,0.686,0.184,1    H18.816z"/><path d="M11,26.023c0.552,0,1-0.447,1-1V10.744c0-0.938,0.263-1.854,0.76-2.649l2.544-4.071h1.391l2.544,4.071    c0.183,0.293,0.324,0.607,0.442,0.929H14c-0.552,0-1,0.447-1,1s0.448,1,1,1h6v14c0,0.553,0.448,1,1,1s1-0.447,1-1V10.744    c0-1.314-0.368-2.597-1.064-3.71l-4.088-6.541c-0.362-0.657-1.326-0.657-1.696,0l-4.087,6.541C10.368,8.147,10,9.429,10,10.744    v14.279C10,25.576,10.448,26.023,11,26.023z"/><path d="M17,25V14c0-0.553-0.448-1-1-1s-1,0.447-1,1v11c0,0.553,0.448,1,1,1S17,25.553,17,25z"/><path d="M33,26.023c0.552,0,1-0.447,1-1v-2c0-2.762-0.443-5.49-1.316-8.11c-0.174-0.523-0.738-0.807-1.265-0.632    c-0.524,0.174-0.807,0.74-0.632,1.265C31.592,17.961,32,20.477,32,23.023v2C32,25.576,32.448,26.023,33,26.023z"/><path d="M25,26.023c0.552,0,1-0.447,1-1v-2c0-0.335,0.026-0.667,0.04-1H29c0.552,0,1-0.447,1-1s-0.448-1-1-1h-2.791    c0.194-1.518,0.517-3.017,1.004-4.478l0.507-1.522H29c2.757,0,5-2.063,5-4.6c0-3.236-3.797-8.395-4.196-8.995    c-0.379-0.571-1.231-0.571-1.607,0C27.799,1.03,24,6.187,24,9.423c0,0.261,0.024,0.523,0.072,0.781    c0.101,0.543,0.62,0.904,1.166,0.802c0.543-0.101,0.902-0.622,0.801-1.165C26.013,9.705,26,9.566,26,9.423    c0-1.748,1.756-4.777,3-6.652c1.244,1.874,3,4.901,3,6.652c0,1.434-1.346,2.6-3,2.6h-2c-0.431,0-0.812,0.275-0.949,0.684    l-0.735,2.206C24.443,17.533,24,20.261,24,23.023v2C24,25.576,24.448,26.023,25,26.023z"/></g></g><text x="0" y="59" fill="#000000" font-size="5px" font-weight="bold" font-family="'Helvetica Neue', Helvetica, Arial-Unicode, Arial, Sans-serif">Created by Lewis Ngugi</text><text x="0" y="64" fill="#000000" font-size="5px" font-weight="bold" font-family="'Helvetica Neue', Helvetica, Arial-Unicode, Arial, Sans-serif">from the Noun Project</text></svg>
