<svg xmlns="http://www.w3.org/2000/svg" xmlns:xlink="http://www.w3.org/1999/xlink" version="1.1" x="0px" y="0px" viewBox="0 0 100 100" enable-background="new 0 0 100 100" xml:space="preserve"><symbol viewBox="-27.299 -39.024 54.598 78.047"><path fill="none" d="M11.157,34.02c-1.275-1.85-3.408-3.026-5.733-3.026c-2.13,0-4.118,0.985-5.424,2.607   c-1.306-1.622-3.294-2.607-5.423-2.607c-2.325,0-4.457,1.176-5.734,3.026c-1.275-1.85-3.408-3.026-5.733-3.026   c-1.913,0-3.648,0.776-4.908,2.029v-66.474c1.26,1.253,2.995,2.029,4.908,2.029c2.325,0,4.458-1.176,5.733-3.026   c1.277,1.85,3.409,3.026,5.734,3.026c2.129,0,4.117-0.986,5.423-2.607c1.306,1.622,3.294,2.607,5.424,2.607   c2.325,0,4.458-1.176,5.733-3.026c1.277,1.85,3.409,3.026,5.734,3.026c1.913,0,3.647-0.776,4.907-2.028v66.473   c-1.26-1.253-2.994-2.028-4.907-2.028C14.567,30.995,12.435,32.17,11.157,34.02z"/><path fill="#000000" stroke="#000000" stroke-width="3" stroke-miterlimit="10" d="M-20.463-37.524   c0.391,1.615,1.839,2.822,3.573,2.822c1.733,0,3.181-1.207,3.572-2.822h4.323c0.391,1.615,1.839,2.822,3.573,2.822   s3.182-1.207,3.573-2.822h3.701c0.391,1.615,1.839,2.822,3.573,2.822s3.182-1.207,3.573-2.822h4.322   c0.391,1.615,1.839,2.822,3.573,2.822s3.182-1.207,3.573-2.822h5.335v75.047h-5.266c-0.219-1.825-1.759-3.25-3.641-3.25   s-3.423,1.425-3.641,3.25H9.065c-0.219-1.825-1.759-3.25-3.641-3.25s-3.423,1.425-3.641,3.25h-3.564   c-0.219-1.825-1.759-3.25-3.641-3.25s-3.423,1.425-3.641,3.25h-4.186c-0.219-1.825-1.758-3.25-3.641-3.25   c-1.883,0-3.423,1.425-3.641,3.25h-5.267v-75.047H-20.463z"/></symbol><symbol viewBox="-30.282 -48.056 60.563 94.113"><path fill="#000000" stroke="#000000" stroke-width="6" stroke-miterlimit="10" d="M16.006,43.056   c-3.233-4.883-8.77-8.108-15.065-8.108s-11.832,3.225-15.065,8.108h-10.584v-88.113h10.584c3.233,4.883,8.77,8.108,15.065,8.108   s11.832-3.224,15.065-8.108H26.59v88.113H16.006z"/><line fill="none" stroke="#000000" stroke-width="5" stroke-linecap="round" stroke-linejoin="round" stroke-miterlimit="10" stroke-dasharray="7,8" x1="27.781" y1="-20.755" x2="-27.782" y2="-20.755"/></symbol><symbol viewBox="-24.712 -42.834 54.356 85.667"><path fill="#000000" stroke="#000000" stroke-width="5" stroke-miterlimit="10" d="M17.181,40.333h-4.475   c-0.466-2.355-2.539-4.131-5.031-4.131c-2.491,0-4.565,1.776-5.03,4.131h-4.883c-0.466-2.355-2.539-4.131-5.031-4.131   c-2.491,0-4.565,1.776-5.03,4.131h-4.883c-0.466-2.355-2.539-4.131-5.03-4.131v-72.023c2.622,0,4.76-1.974,5.069-4.512h4.806   c0.309,2.539,2.447,4.512,5.069,4.512c2.622,0,4.76-1.974,5.069-4.512h4.806c0.309,2.539,2.447,4.512,5.069,4.512   c2.622,0,4.76-1.974,5.069-4.512h4.398c0.309,2.539,2.447,4.512,5.069,4.512v72.023C19.72,36.202,17.647,37.978,17.181,40.333z"/><line fill="none" stroke="#000000" stroke-width="4" stroke-linecap="round" stroke-linejoin="round" stroke-miterlimit="10" stroke-dasharray="7,6" x1="-22.644" y1="-17.395" x2="27.644" y2="-17.395"/></symbol><symbol viewBox="-23.971 -42.094 47.944 84.188"><g><path fill="#000000" stroke="#000000" stroke-width="3.521" stroke-miterlimit="10" d="M17.182,40.333h-4.475    c-0.466-2.355-2.539-4.131-5.031-4.131c-2.491,0-4.565,1.776-5.03,4.131h-4.883c-0.466-2.355-2.539-4.131-5.031-4.131    c-2.491,0-4.565,1.776-5.03,4.131h-4.883c-0.466-2.355-2.539-4.131-5.03-4.131v-72.023c2.622,0,4.76-1.974,5.069-4.512h4.806    c0.309,2.539,2.447,4.512,5.069,4.512c2.622,0,4.76-1.974,5.069-4.512h4.806c0.309,2.539,2.447,4.512,5.069,4.512    c2.622,0,4.76-1.974,5.069-4.512h4.398c0.309,2.539,2.447,4.512,5.069,4.512v72.023C19.721,36.202,17.648,37.978,17.182,40.333z"/></g><polygon fill="#000000" stroke="#000000" stroke-width="3.8113" stroke-miterlimit="10" points="5.14,17.02 11.952,13.853    8.431,7.217 7.524,-0.241 0.124,1.057 -7.248,-0.385 -8.301,7.053 -11.951,13.62 -5.201,16.919 -0.084,22.42  "/></symbol><symbol id="a" viewBox="-21.087 -31.266 42.17 72.87"><path fill="#000000" stroke="#000000" stroke-width="5" stroke-miterlimit="10" d="M6.373,39.104h5.21c0-3.87,3.13-7,7-7v-53.87   c-3.87,0-7-3.14-7-7h-5.21"/><path fill="#000000" stroke="#000000" stroke-width="5" stroke-miterlimit="10" d="M-6.377-28.766h-5.21c0,3.86-3.13,7-7,7v53.87   c3.87,0,7,3.13,7,7h5.21"/><line fill="none" stroke="#000000" stroke-width="5" stroke-miterlimit="10" x1="2.373" y1="39.104" x2="-2.377" y2="39.104"/><line fill="none" stroke="#000000" stroke-width="5" stroke-miterlimit="10" x1="2.373" y1="-28.766" x2="-2.377" y2="-28.766"/><g><path stroke="#000000" stroke-width="0.9" stroke-miterlimit="10" d="M-9.901-10.118c0-0.994-0.806-1.8-1.8-1.8    s-1.8,0.806-1.8,1.8s0.806,1.8,1.8,1.8S-9.901-9.124-9.901-10.118z"/><path stroke="#000000" stroke-width="0.9" stroke-miterlimit="10" d="M-2.101-10.118c0-0.994-0.806-1.8-1.8-1.8    s-1.8,0.806-1.8,1.8s0.806,1.8,1.8,1.8S-2.101-9.124-2.101-10.118z"/><path stroke="#000000" stroke-width="0.9" stroke-miterlimit="10" d="M5.699-10.118c0-0.994-0.806-1.8-1.8-1.8s-1.8,0.806-1.8,1.8    s0.806,1.8,1.8,1.8S5.699-9.124,5.699-10.118z"/><path stroke="#000000" stroke-width="0.9" stroke-miterlimit="10" d="M13.499-10.118c0-0.994-0.806-1.8-1.8-1.8    s-1.8,0.806-1.8,1.8s0.806,1.8,1.8,1.8S13.499-9.124,13.499-10.118z"/></g></symbol><symbol viewBox="-21.086 -31.266 42.17 72.87"><use xlink:href="#a" width="42.17" height="72.87" x="-21.087" y="-31.266" transform="matrix(1 0 0 1 6.996482e-004 -2.671033e-004)" overflow="visible"/><line fill="none" stroke="#000000" stroke-width="4" stroke-miterlimit="10" x1="9.224" y1="13.75" x2="-9.223" y2="13.75"/></symbol><g display="none"><path display="inline" fill="#000000" d="M588.792,954.743H-649.006c-2.084,0-3.789-1.705-3.789-3.789V-236.211   c0-2.084,1.705-3.789,3.789-3.789H588.792c2.084,0,3.789,1.705,3.789,3.789V950.954   C592.582,953.038,590.877,954.743,588.792,954.743z"/></g><g><g><path d="M16.772,36.733v46.925c0,1.789,1.464,3.253,3.253,3.253h17.902c0.647,1.137,1.634,2.028,2.873,2.51l16.253,6.307    l0.903,1.457l2.705-1.665l-0.832-1.353c-0.003-0.006-0.011-0.017-0.017-0.027c-0.014-0.021-0.029-0.046-0.037-0.058l-0.363-0.541    c-0.182-0.27-0.441-0.477-0.744-0.595l-16.717-6.487c-0.633-0.246-1.131-0.722-1.404-1.34c-0.271-0.616-0.287-1.299-0.042-1.928    c0.244-0.629,0.718-1.125,1.335-1.398c0.618-0.272,1.306-0.288,1.934-0.044l5.736,2.22c0.645,0.25,1.38,0.053,1.813-0.489    c0.433-0.542,0.465-1.301,0.078-1.876l-15.703-23.4c-0.375-0.56-0.51-1.231-0.38-1.892s0.51-1.23,1.069-1.606    c1.157-0.776,2.729-0.47,3.505,0.685l4.945,7.371c0.364,0.542,1.021,0.806,1.661,0.666c0.639-0.142,1.125-0.659,1.227-1.305    c0.109-0.701,0.494-1.304,1.083-1.699c0.56-0.375,1.229-0.511,1.892-0.38c0.66,0.13,1.23,0.51,1.606,1.07l0.511,0.76    c0.363,0.541,1.017,0.804,1.658,0.666c0.637-0.14,1.124-0.654,1.228-1.298c0.114-0.708,0.5-1.314,1.084-1.706    c1.073-0.721,2.512-0.517,3.347,0.472c0.402,0.477,1.046,0.673,1.646,0.504c0.6-0.169,1.045-0.674,1.139-1.291    c0.106-0.706,0.492-1.313,1.085-1.711c1.157-0.775,2.725-0.465,3.493,0.68l14.396,21.742l0.888,1.341l2.648-1.753l-15.29-23.091    c-1.749-2.608-5.295-3.307-7.905-1.556c-0.638,0.428-1.175,0.977-1.588,1.607c-1.768-0.839-3.905-0.737-5.628,0.419    c-0.484,0.325-0.908,0.713-1.263,1.153c-0.548-0.435-1.176-0.762-1.855-0.972V42.237c0.349-0.383,0.701-0.766,1.052-1.144h14.099    c4.371,0,7.927-3.556,7.927-7.927V11.29c0-4.371-3.556-7.927-7.927-7.927H34.783c-4.371,0-7.928,3.556-7.928,7.927v21.876    c0,0.106,0.012,0.209,0.016,0.315h-6.846C18.236,33.48,16.772,34.944,16.772,36.733z M34.336,82.029    c-1.838,0-3.327-1.49-3.327-3.327c0-1.838,1.49-3.327,3.327-3.327s3.327,1.49,3.327,3.327    C37.664,80.539,36.174,82.029,34.336,82.029z M30.131,11.29c0-2.565,2.087-4.652,4.652-4.652h32.268    c2.564,0,4.651,2.087,4.651,4.652v21.876c0,2.565-2.087,4.652-4.651,4.652H51.533l-0.484,0.515    c-2.094,2.225-4.307,4.755-5.634,6.295l-6.129-6.811h-4.503c-2.565,0-4.652-2.087-4.652-4.652V11.29z M22.627,41.411    c0-1.073,0.878-1.952,1.952-1.952h5.403c1.334,1.02,2.996,1.634,4.801,1.634h3.044l7.661,8.513l0.557-0.661v9.7    c-0.028,0.03-0.06,0.056-0.088,0.087l-3.429-5.11c-1.75-2.607-5.298-3.304-7.911-1.552c-1.264,0.848-2.122,2.137-2.416,3.63    c-0.294,1.493,0.011,3.011,0.859,4.275l7.62,11.356H24.579c-1.073,0-1.952-0.878-1.952-1.952V41.411z"/><path d="M43.918,30.342c1.07,0.618,2.66,1.076,4.348,1.266l0.544,0.055v1.945c0,0.508,0.41,0.917,0.917,0.917h2.208    c0.501,0,0.917-0.41,0.917-0.917v-2.122l0.459-0.122c3.742-0.942,5.069-3.516,5.069-5.43c0-3.547-3.057-5.02-6.054-5.999    c-2.813-0.929-3.712-1.492-3.712-2.324c0-0.746,0.862-1.492,2.795-1.492c2.128,0,3.461,0.605,4.03,0.868    c0.122,0.055,0.251,0.086,0.379,0.086c0.355,0,0.679-0.208,0.832-0.526l0.875-1.853c0.104-0.214,0.116-0.471,0.031-0.697    c-0.079-0.232-0.251-0.416-0.471-0.52c-1.052-0.495-2.195-0.813-3.486-0.966l-0.538-0.067v-1.841c0-0.501-0.41-0.911-0.917-0.911    h-2.171c-0.501,0-0.917,0.41-0.917,0.911v2.049l-0.459,0.116c-3.021,0.764-4.825,2.703-4.825,5.179    c0,3.265,3.235,4.721,6.408,5.717c2.929,0.954,3.327,1.779,3.327,2.464c0,1.058-1.37,1.828-3.253,1.828    c-1.602,0-3.326-0.41-4.611-1.095c-0.135-0.073-0.281-0.11-0.434-0.11c-0.098,0-0.196,0.018-0.294,0.049    c-0.238,0.086-0.434,0.263-0.538,0.495l-0.844,1.877C43.343,29.608,43.502,30.11,43.918,30.342z"/></g></g></svg>
