<svg
  xmlns:dc="http://purl.org/dc/elements/1.1/"
  xmlns:cc="http://creativecommons.org/ns#"
  xmlns:rdf="http://www.w3.org/1999/02/22-rdf-syntax-ns#"
  xmlns:svg="http://www.w3.org/2000/svg"
  xmlns="http://www.w3.org/2000/svg"
  xmlns:sodipodi="http://sodipodi.sourceforge.net/DTD/sodipodi-0.dtd"
  xmlns:inkscape="http://www.inkscape.org/namespaces/inkscape"
  version="1.1"
  x="0px" y="0px"
  viewBox="0 0 100 100"
  >
  <g>
    <path style="font-size:medium;font-style:normal;font-variant:normal;font-weight:normal;font-stretch:normal;text-indent:0;text-align:start;text-decoration:none;line-height:normal;letter-spacing:normal;word-spacing:normal;text-transform:none;direction:ltr;block-progression:tb;writing-mode:lr-tb;text-anchor:start;baseline-shift:baseline;opacity:1;color:#000000;fill:#000000;fill-opacity:1;stroke:none;stroke-width:4;marker:none;visibility:visible;display:inline;overflow:visible;enable-background:accumulate;font-family:Sans;-inkscape-font-specification:Sans" d="M 40 6 C 21.246007 6 6 21.24601 6 40 C 6 58.75402 21.246007 74 40 74 C 48.661987 74 56.55377 70.723242 62.5625 65.375 L 69.1875 72 L 66.59375 74.59375 A 2.0002 2.0002 0 0 0 66.59375 77.4375 L 82.5625 93.4375 A 2.0002 2.0002 0 0 0 85.40625 93.4375 L 93.4375 85.40625 A 2.0002 2.0002 0 0 0 93.4375 82.5625 L 77.4375 66.59375 A 2.0002 2.0002 0 0 0 74.71875 66.4375 A 2.0002 2.0002 0 0 0 74.59375 66.59375 L 72 69.1875 L 65.40625 62.5625 C 70.746296 56.555661 74 48.654556 74 40 C 74 21.24601 58.753993 6 40 6 z M 40 10 C 56.592232 10 70 23.40777 70 40 C 70 56.59222 56.592232 70 40 70 C 23.407768 70 10 56.59222 10 40 C 10 23.40777 23.407768 10 40 10 z M 34.8125 18 A 2.0002 2.0002 0 0 0 33 20 L 33 24.59375 C 31.999803 25.04849 31.043347 25.58562 30.15625 26.21875 L 26.1875 23.9375 A 2.0002 2.0002 0 0 0 23.46875 24.65625 L 18.46875 33.34375 A 2.0002 2.0002 0 0 0 19.1875 36.0625 L 23.15625 38.375 C 23.103406 38.91403 23 39.44555 23 40 C 23 40.55445 23.103406 41.08597 23.15625 41.625 L 19.1875 43.9375 A 2.0002 2.0002 0 0 0 18.46875 46.65625 L 23.46875 55.34375 A 2.0002 2.0002 0 0 0 26.1875 56.0625 L 30.15625 53.78125 C 31.043347 54.41445 31.999803 54.95155 33 55.40625 L 33 60 A 2.0002 2.0002 0 0 0 35 62 L 45 62 A 2.0002 2.0002 0 0 0 47 60 L 47 55.40625 C 48.000197 54.95155 48.956653 54.41445 49.84375 53.78125 L 53.8125 56.0625 A 2.0002 2.0002 0 0 0 56.53125 55.34375 L 61.53125 46.65625 A 2.0002 2.0002 0 0 0 60.8125 43.9375 L 56.84375 41.625 C 56.896594 41.08597 57 40.55445 57 40 C 57 39.44555 56.896594 38.91403 56.84375 38.375 L 60.8125 36.0625 A 2.0002 2.0002 0 0 0 61.53125 33.34375 L 56.53125 24.65625 A 2.0002 2.0002 0 0 0 53.8125 23.9375 L 49.84375 26.21875 C 48.956653 25.58562 48.000197 25.04849 47 24.59375 L 47 20 A 2.0002 2.0002 0 0 0 45 18 L 35 18 A 2.0002 2.0002 0 0 0 34.8125 18 z M 37 22 L 43 22 L 43 25.875 A 2.0002 2.0002 0 0 0 44.34375 27.75 C 45.864577 28.29038 47.208203 29.10321 48.40625 30.125 A 2.0002 2.0002 0 0 0 50.71875 30.3125 L 54.09375 28.375 L 57.09375 33.625 L 53.75 35.5625 A 2.0002 2.0002 0 0 0 52.78125 37.65625 C 52.921806 38.42503 53 39.20092 53 40 C 53 40.79908 52.92181 41.57497 52.78125 42.34375 A 2.0002 2.0002 0 0 0 53.75 44.4375 L 57.09375 46.375 L 54.09375 51.625 L 50.71875 49.6875 A 2.0002 2.0002 0 0 0 48.40625 49.875 C 47.208203 50.8968 45.864577 51.7096 44.34375 52.25 A 2.0002 2.0002 0 0 0 43 54.125 L 43 58 L 37 58 L 37 54.125 A 2.0002 2.0002 0 0 0 35.65625 52.25 C 34.135423 51.7096 32.791797 50.8968 31.59375 49.875 A 2.0002 2.0002 0 0 0 29.28125 49.6875 L 25.90625 51.625 L 22.90625 46.375 L 26.25 44.4375 A 2.0002 2.0002 0 0 0 27.21875 42.34375 C 27.078194 41.57497 27 40.79908 27 40 C 27 39.20092 27.07819 38.42503 27.21875 37.65625 A 2.0002 2.0002 0 0 0 26.25 35.5625 L 22.90625 33.625 L 25.90625 28.375 L 29.28125 30.3125 A 2.0002 2.0002 0 0 0 31.59375 30.125 C 32.791797 29.10321 34.135423 28.29038 35.65625 27.75 A 2.0002 2.0002 0 0 0 37 25.875 L 37 22 z M 40 30 C 34.500841 30 30 34.50084 30 40 C 30 45.49916 34.500841 50 40 50 C 45.499159 50 50 45.49916 50 40 C 50 34.50084 45.499159 30 40 30 z M 40 34 C 43.337398 34 46 36.6626 46 40 C 46 43.3374 43.337398 46 40 46 C 36.662601 46 34 43.3374 34 40 C 34 36.6626 36.662601 34 40 34 z M 76 70.8125 L 89.1875 84 L 84 89.1875 L 70.8125 76 L 76 70.8125 z "/>
  </g>
</svg>
