<svg xmlns="http://www.w3.org/2000/svg" xmlns:xlink="http://www.w3.org/1999/xlink" version="1.1" x="0px" y="0px" viewBox="0 0 128 128" enable-background="new 0 0 128 128" xml:space="preserve"><g><path d="M126.7,18.5c-0.4,0-0.8,0.3-0.8,0.8v14.2c0,0.4,0.3,0.8,0.8,0.8c0.4,0,0.8-0.3,0.8-0.8V19.2   C127.5,18.8,127.2,18.5,126.7,18.5z"/><path d="M126.7,37.4c-0.4,0-0.8,0.3-0.8,0.8v4.6c0,0.4,0.3,0.8,0.8,0.8c0.4,0,0.8-0.3,0.8-0.8v-4.6   C127.5,37.7,127.2,37.4,126.7,37.4z"/><path d="M97,105.7c-0.3-0.3-0.8-0.3-1.1,0c-0.3,0.3-0.3,0.8,0,1.1l1.6,1.6c0.1,0.1,0.3,0.2,0.5,0.2c0.2,0,0.4-0.1,0.5-0.2   c0.3-0.3,0.3-0.8,0-1.1L97,105.7z"/><path d="M102.2,110.9c-0.3-0.3-0.8-0.3-1.1,0c-0.3,0.3-0.3,0.8,0,1.1l1.6,1.6c0.1,0.1,0.3,0.2,0.5,0.2c0.2,0,0.4-0.1,0.5-0.2   c0.3-0.3,0.3-0.8,0-1.1L102.2,110.9z"/><path d="M97.5,110.9l-1.6,1.6c-0.3,0.3-0.3,0.8,0,1.1c0.1,0.1,0.3,0.2,0.5,0.2c0.2,0,0.4-0.1,0.5-0.2l1.6-1.6   c0.3-0.3,0.3-0.8,0-1.1C98.3,110.6,97.8,110.6,97.5,110.9z"/><path d="M102.7,105.7l-1.6,1.6c-0.3,0.3-0.3,0.8,0,1.1c0.1,0.1,0.3,0.2,0.5,0.2c0.2,0,0.4-0.1,0.5-0.2l1.6-1.6   c0.3-0.3,0.3-0.8,0-1.1C103.5,105.4,103,105.4,102.7,105.7z"/><path d="M106,15.3c-0.3-0.3-0.8-0.3-1.1,0c-0.3,0.3-0.3,0.8,0,1.1l1.6,1.6c0.1,0.1,0.3,0.2,0.5,0.2c0.2,0,0.4-0.1,0.5-0.2   c0.3-0.3,0.3-0.8,0-1.1L106,15.3z"/><path d="M112.7,22.1l-1.6-1.6c-0.3-0.3-0.8-0.3-1.1,0c-0.3,0.3-0.3,0.8,0,1.1l1.6,1.6c0.1,0.1,0.3,0.2,0.5,0.2   c0.2,0,0.4-0.1,0.5-0.2C113,22.8,113,22.3,112.7,22.1z"/><path d="M106.5,20.5l-1.6,1.6c-0.3,0.3-0.3,0.8,0,1.1c0.1,0.1,0.3,0.2,0.5,0.2c0.2,0,0.4-0.1,0.5-0.2l1.6-1.6   c0.3-0.3,0.3-0.8,0-1.1C107.3,20.2,106.8,20.2,106.5,20.5z"/><path d="M110.6,18.2c0.2,0,0.4-0.1,0.5-0.2l1.6-1.6c0.3-0.3,0.3-0.8,0-1.1c-0.3-0.3-0.8-0.3-1.1,0l-1.6,1.6c-0.3,0.3-0.3,0.8,0,1.1   C110.2,18.1,110.4,18.2,110.6,18.2z"/><path d="M3.2,4.3c0.1,0.1,0.3,0.2,0.5,0.2c0.2,0,0.4-0.1,0.5-0.2c0.3-0.3,0.3-0.8,0-1.1L2.6,1.6c-0.3-0.3-0.8-0.3-1.1,0   c-0.3,0.3-0.3,0.8,0,1.1L3.2,4.3z"/><path d="M8.3,9.4c0.1,0.1,0.3,0.2,0.5,0.2c0.2,0,0.4-0.1,0.5-0.2c0.3-0.3,0.3-0.8,0-1.1L7.8,6.7C7.5,6.4,7,6.4,6.7,6.7   C6.4,7,6.4,7.5,6.7,7.8L8.3,9.4z"/><path d="M2.1,9.6c0.2,0,0.4-0.1,0.5-0.2l1.6-1.6c0.3-0.3,0.3-0.8,0-1.1c-0.3-0.3-0.8-0.3-1.1,0L1.6,8.3c-0.3,0.3-0.3,0.8,0,1.1   C1.7,9.5,1.9,9.6,2.1,9.6z"/><path d="M7.2,4.5c0.2,0,0.4-0.1,0.5-0.2l1.6-1.6c0.3-0.3,0.3-0.8,0-1.1c-0.3-0.3-0.8-0.3-1.1,0L6.7,3.2C6.4,3.5,6.4,4,6.7,4.3   C6.9,4.4,7.1,4.5,7.2,4.5z"/><path d="M120.1,115.4c-1.9,0-3.5,1.6-3.5,3.5c0,1.9,1.6,3.5,3.5,3.5c1.9,0,3.5-1.6,3.5-3.5C123.5,117,122,115.4,120.1,115.4z    M120.1,120.8c-1.1,0-2-0.9-2-2c0-1.1,0.9-2,2-2c1.1,0,2,0.9,2,2C122,119.9,121.2,120.8,120.1,120.8z"/><path d="M13.5,107.8c0-1.9-1.6-3.5-3.5-3.5c-1.9,0-3.5,1.6-3.5,3.5c0,1.9,1.6,3.5,3.5,3.5C12,111.3,13.5,109.7,13.5,107.8z    M8.1,107.8c0-1.1,0.9-2,2-2c1.1,0,2,0.9,2,2c0,1.1-0.9,2-2,2C9,109.8,8.1,108.9,8.1,107.8z"/><path d="M81.8,22.7c1.9,0,3.5-1.6,3.5-3.5c0-1.9-1.6-3.5-3.5-3.5c-1.9,0-3.5,1.6-3.5,3.5C78.4,21.1,79.9,22.7,81.8,22.7z    M81.8,17.3c1.1,0,2,0.9,2,2c0,1.1-0.9,2-2,2c-1.1,0-2-0.9-2-2C79.9,18.1,80.8,17.3,81.8,17.3z"/><path d="M81.8,3.6h12.5c0.4,0,0.8-0.3,0.8-0.8s-0.3-0.8-0.8-0.8H81.8c-0.4,0-0.8,0.3-0.8,0.8S81.4,3.6,81.8,3.6z"/><path d="M98.5,3.6h4.1c0.4,0,0.8-0.3,0.8-0.8s-0.3-0.8-0.8-0.8h-4.1c-0.4,0-0.8,0.3-0.8,0.8S98,3.6,98.5,3.6z"/><path d="M102.5,6.4h-8.7c-0.4,0-0.8,0.3-0.8,0.8c0,0.4,0.3,0.8,0.8,0.8h8.7c0.4,0,0.8-0.3,0.8-0.8C103.3,6.8,102.9,6.4,102.5,6.4z"/><path d="M87.2,6.4c-0.4,0-0.8,0.3-0.8,0.8c0,0.4,0.3,0.8,0.8,0.8H90c0.4,0,0.8-0.3,0.8-0.8c0-0.4-0.3-0.8-0.8-0.8H87.2z"/><path d="M24.2,125.1H11.6c-0.4,0-0.8,0.3-0.8,0.8c0,0.4,0.3,0.8,0.8,0.8h12.5c0.4,0,0.8-0.3,0.8-0.8   C24.9,125.5,24.6,125.1,24.2,125.1z"/><path d="M7.5,125.1H3.5c-0.4,0-0.8,0.3-0.8,0.8c0,0.4,0.3,0.8,0.8,0.8h4.1c0.4,0,0.8-0.3,0.8-0.8C8.3,125.5,7.9,125.1,7.5,125.1z"/><path d="M2.7,121.6c0,0.4,0.3,0.8,0.8,0.8h8.7c0.4,0,0.8-0.3,0.8-0.8c0-0.4-0.3-0.8-0.8-0.8H3.5C3,120.8,2.7,121.1,2.7,121.6z"/><path d="M18.8,122.3c0.4,0,0.8-0.3,0.8-0.8c0-0.4-0.3-0.8-0.8-0.8H16c-0.4,0-0.8,0.3-0.8,0.8c0,0.4,0.3,0.8,0.8,0.8H18.8z"/><path d="M7.4,76h27.5c0.4,0,0.8-0.3,0.8-0.8V61.5c0-0.4-0.3-0.8-0.8-0.8H7.4c-0.4,0-0.8,0.3-0.8,0.8v13.8C6.6,75.6,7,76,7.4,76z    M8.1,62.2h26v12.2h-26V62.2z"/><path d="M67.4,76c0.4,0,0.8-0.3,0.8-0.8V61.5c0-0.4-0.3-0.8-0.8-0.8H39.9c-0.4,0-0.8,0.3-0.8,0.8v13.8c0,0.4,0.3,0.8,0.8,0.8H67.4z    M40.6,62.2h26v12.2h-26V62.2z"/><path d="M99.8,60.7H72.3c-0.4,0-0.8,0.3-0.8,0.8v13.8c0,0.4,0.3,0.8,0.8,0.8h27.5c0.4,0,0.8-0.3,0.8-0.8V61.5   C100.6,61,100.3,60.7,99.8,60.7z M99.1,74.5h-26V62.2h26V74.5z"/><path d="M51.1,79H7.4c-0.4,0-0.8,0.3-0.8,0.8v13.8c0,0.4,0.3,0.8,0.8,0.8h43.8c0.4,0,0.8-0.3,0.8-0.8V79.7   C51.9,79.3,51.6,79,51.1,79z M50.4,92.7H8.1V80.5h42.3V92.7z"/><path d="M99.8,79H56.1c-0.4,0-0.8,0.3-0.8,0.8v13.8c0,0.4,0.3,0.8,0.8,0.8h43.8c0.4,0,0.8-0.3,0.8-0.8V79.7   C100.6,79.3,100.3,79,99.8,79z M99.1,92.7H56.8V80.5h42.3V92.7z"/><path d="M6.6,45.9v10.4c0,0.4,0.3,0.8,0.8,0.8h69.6c0.4,0,0.8-0.3,0.8-0.8V45.9c0-0.4-0.3-0.8-0.8-0.8H7.4   C7,45.2,6.6,45.5,6.6,45.9z M8.1,46.7h68.1v8.9H8.1V46.7z"/><path d="M81.8,57.1h18c0.4,0,0.8-0.3,0.8-0.8V45.9c0-0.4-0.3-0.8-0.8-0.8h-18c-0.4,0-0.8,0.3-0.8,0.8v10.4   C81.1,56.7,81.4,57.1,81.8,57.1z M82.6,46.7h16.5v8.9H82.6V46.7z"/><path d="M123,99.6V49c0-0.4-0.3-0.8-0.8-0.8h-8.9c-0.4,0-0.8,0.3-0.8,0.8v50.6c0,0.4,0.3,0.8,0.8,0.8h8.9   C122.7,100.4,123,100,123,99.6z M121.5,56h-3.6c-0.4,0-0.8,0.3-0.8,0.8c0,0.4,0.3,0.8,0.8,0.8h3.6v7.2H119c-0.4,0-0.8,0.3-0.8,0.8   c0,0.4,0.3,0.8,0.8,0.8h2.5v7.4h-3.6c-0.4,0-0.8,0.3-0.8,0.8c0,0.4,0.3,0.8,0.8,0.8h3.6v7.2H119c-0.4,0-0.8,0.3-0.8,0.8   c0,0.4,0.3,0.8,0.8,0.8h2.5v7.4h-3.6c-0.4,0-0.8,0.3-0.8,0.8c0,0.4,0.3,0.8,0.8,0.8h3.6v6.2h-7.4V49.8h7.4V56z"/><path d="M41.3,29.4c2.1,2.9,5.5,4.6,9.1,4.6c0.6,0,1.2,0,1.8-0.1c3-0.5,5.6-2.1,7.4-4.5h0c1.8-2.4,2.5-5.4,2-8.4   c-0.5-3-2.1-5.6-4.5-7.4c-2.4-1.8-5.4-2.5-8.4-2c-6.1,1-10.3,6.7-9.4,12.9C39.6,26.3,40.3,28,41.3,29.4z M42.5,17   c1.5-2.1,3.8-3.5,6.4-3.9c0.5-0.1,1-0.1,1.5-0.1c2,0,4,0.6,5.7,1.9c2.1,1.5,3.5,3.8,3.9,6.4c0.4,2.6-0.2,5.2-1.8,7.3h0   c-1.5,2.1-3.8,3.5-6.4,3.9c-3.6,0.6-7.2-0.9-9.4-3.9c-0.9-1.2-1.5-2.7-1.8-4.2C40.4,21.7,41,19.1,42.5,17z"/><path d="M106.7,32.7c0-2.5-2-4.5-4.5-4.5H70.8c0,0-0.1-0.1-0.1-0.1l-3.4-1.8c0.5-2.4,0.5-5-0.1-7.4l3.3-1.8c0.3-0.2,0.5-0.6,0.3-1   l-1.5-3.5c-0.2-0.4-0.6-0.5-0.9-0.4l-3.6,1.1c-1.4-2.1-3.2-3.9-5.3-5.2l1.1-3.7c0.1-0.4-0.1-0.8-0.4-0.9l-3.5-1.4   c-0.4-0.1-0.8,0-1,0.3L54,5.9c-2.4-0.5-5-0.5-7.4,0.1l-1.8-3.3c-0.2-0.3-0.6-0.5-1-0.3l-3.5,1.5c-0.4,0.2-0.5,0.6-0.4,0.9L41,8.3   c-1.6,1-2.9,2.3-4.1,3.7c-1.4-1.1-2.9-2-4.6-2.5l0.1-2.9c0-0.4-0.3-0.7-0.7-0.8l-3-0.4c-0.4-0.1-0.7,0.2-0.8,0.6l-0.7,2.9   c-1.9,0.1-3.9,0.6-5.6,1.5l-2-2.1c-0.3-0.3-0.7-0.3-1-0.1l-2.4,1.9c-0.3,0.2-0.4,0.7-0.2,1l1.6,2.5c-1.3,1.5-2.3,3.2-2.9,5   l-2.9-0.1c-0.4,0-0.7,0.3-0.8,0.7l-0.4,3c-0.1,0.4,0.2,0.7,0.6,0.8l2.9,0.7c0.1,1.6,0.5,3.2,1.1,4.7H5c-2.5,0-4.5,2-4.5,4.5v6.2   c0,0,0,0,0,0l0,0v56.9c0,2.5,2,4.5,4.5,4.5h36.8l-7.2,8.5h-8.8c-1.7,0-3.1,1.4-3.1,3.1v4.2c0,0.4,0.3,0.8,0.8,0.8h60.5   c0.4,0,0.8-0.3,0.8-0.8v-4.2c0-1.7-1.4-3.1-3.1-3.1h-8.8l-7.2-8.5h36.8c2.5,0,4.5-2,4.5-4.5V39l0,0c0,0,0,0,0,0V32.7z M36.8,14.9   c1.3-2.3,3.2-4.2,5.5-5.6c0.3-0.2,0.4-0.5,0.3-0.9l-1.1-3.5l2.2-0.9l1.8,3.3c0.2,0.3,0.5,0.4,0.9,0.4c2.5-0.7,5.3-0.7,7.8-0.1   c0.3,0.1,0.7-0.1,0.9-0.4l1.7-3.3L59,4.7l-1,3.6c-0.1,0.3,0,0.7,0.3,0.9c2.3,1.3,4.2,3.2,5.6,5.5c0.2,0.3,0.5,0.4,0.9,0.3l3.5-1.1   l0.9,2.2L66,17.9c-0.3,0.2-0.5,0.5-0.4,0.9c0.7,2.6,0.7,5.3,0.1,7.8c-0.1,0.3,0.1,0.7,0.4,0.9l3.3,1.7l-0.9,2.3l-3.6-1   c-0.3-0.1-0.7,0-0.9,0.3c-1.3,2.3-3.2,4.2-5.5,5.6c-0.3,0.2-0.4,0.5-0.3,0.9l1.1,3.5l-2.2,0.9l-1.8-3.2c-0.2-0.3-0.5-0.5-0.8-0.4   c-2.2,0.6-4.4,0.7-6.5,0.3c-0.4-0.1-0.9-0.2-1.3-0.3c-0.3-0.1-0.7,0.1-0.8,0.4l-1.7,3.3l-2.3-0.9l1-3.6c0.1-0.3,0-0.7-0.3-0.9   c-2.3-1.3-4.2-3.2-5.6-5.5c-0.2-0.3-0.5-0.4-0.9-0.3l-3.6,1.1l-0.9-2.2l3.3-1.8c0.3-0.2,0.4-0.5,0.4-0.9c-0.7-2.5-0.7-5.2-0.1-7.8   c0.1-0.3-0.1-0.7-0.4-0.9l-3.3-1.7l0.9-2.3l3.6,1C36.2,15.3,36.6,15.2,36.8,14.9z M30.1,17.5l3.4,1.8c-0.5,2.5-0.5,5,0.1,7.4   l-2.9,1.6h-8.1c-0.7-0.7-1.2-1.5-1.6-2.4c-1.7-3.9,0.1-8.4,4-10.1c1.7-0.7,3.5-0.8,5.3-0.3l-0.4,1.1C29.6,16.9,29.8,17.3,30.1,17.5   z M14.9,22.2l-2.8-0.7l0.2-1.7l2.8,0.1c0.4,0,0.7-0.2,0.7-0.6c0.6-2,1.6-3.9,3.1-5.4c0.2-0.2,0.3-0.6,0.1-0.9l-1.5-2.4l1.3-1   l1.9,2.1c0.2,0.3,0.6,0.3,0.9,0.1c1.8-1,3.9-1.6,6-1.6c0.3,0,0.6-0.2,0.7-0.6L29.2,7l1.7,0.2L30.8,10c0,0.3,0.2,0.7,0.6,0.7   c1.7,0.5,3.3,1.3,4.7,2.5c-0.1,0.1-0.2,0.2-0.3,0.4l-3.7-1.1c-0.4-0.1-0.8,0.1-0.9,0.4l-0.4,1.1c-2.1-0.7-4.4-0.6-6.4,0.3   c-4.6,2-6.8,7.4-4.8,12.1c0.3,0.6,0.6,1.2,1,1.8h-3.8c-0.8-1.6-1.2-3.5-1.3-5.3C15.5,22.6,15.3,22.3,14.9,22.2z M2,32.7   c0-1.6,1.3-3,3-3h11.3c0,0,0,0,0.1,0c0,0,0,0,0.1,0H30l1.3,3.2c0.2,0.4,0.5,0.5,0.9,0.4l3.7-1.1c1.4,2.1,3.2,3.9,5.3,5.2L41,38.2H2   V32.7z M81.6,110.4c0.9,0,1.6,0.7,1.6,1.6v3.5h-59v-3.5c0-0.9,0.7-1.6,1.6-1.6h9.2h37.5H81.6z M70.7,108.9H36.5l7.2-8.5h19.8   L70.7,108.9z M105.2,95.9c0,1.6-1.3,3-3,3H5c-1.6,0-3-1.3-3-3V39.7h38.6l-0.4,1.4c-0.1,0.4,0.1,0.8,0.4,0.9l3.5,1.4   c0.1,0,0.2,0.1,0.3,0.1c0,0,0,0,0,0c0,0,0,0,0,0c0.1,0,0.2,0,0.3-0.1c0,0,0,0,0.1,0c0.1-0.1,0.2-0.2,0.3-0.3l1.8-3.4   c0.3,0.1,0.5,0.1,0.8,0.2c2.2,0.4,4.4,0.3,6.6-0.2l1.8,3.3c0.2,0.3,0.6,0.5,1,0.3l3.5-1.5c0.4-0.1,0.5-0.5,0.4-0.9l-0.4-1.2h44.6   V95.9z M105.2,38.2H60.1l-0.3-0.9c2.1-1.4,3.9-3.2,5.2-5.3l3.7,1.1c0.1,0,0.2,0,0.3,0c0.3,0,0.5-0.2,0.6-0.5l0.5-1.1l0.7-1.7h31.5   c1.6,0,3,1.3,3,3V38.2z"/><path d="M95.8,33.1h-3.7c-0.4,0-0.8,0.3-0.8,0.8c0,0.4,0.3,0.8,0.8,0.8h3.7c0.4,0,0.8-0.3,0.8-0.8C96.6,33.5,96.2,33.1,95.8,33.1z"/><path d="M88,33.1h-3.7c-0.4,0-0.8,0.3-0.8,0.8c0,0.4,0.3,0.8,0.8,0.8H88c0.4,0,0.8-0.3,0.8-0.8C88.8,33.5,88.5,33.1,88,33.1z"/><path d="M80.3,33.1h-3.7c-0.4,0-0.8,0.3-0.8,0.8c0,0.4,0.3,0.8,0.8,0.8h3.7c0.4,0,0.8-0.3,0.8-0.8C81,33.5,80.7,33.1,80.3,33.1z"/></g></svg>
