<?xml version="1.0" encoding="utf-8"?>
<!-- Generator: Adobe Illustrator 16.0.0, SVG Export Plug-In . SVG Version: 6.00 Build 0)  -->
<!DOCTYPE svg PUBLIC "-//W3C//DTD SVG 1.1//EN" "http://www.w3.org/Graphics/SVG/1.1/DTD/svg11.dtd">
<svg version="1.1" id="Layer_1" xmlns="http://www.w3.org/2000/svg" xmlns:xlink="http://www.w3.org/1999/xlink" x="0px" y="0px"
	 width="355.667px" height="162.377px" viewBox="0 0 355.667 162.377" enable-background="new 0 0 355.667 162.377"
	 xml:space="preserve">
<path fill="#676767" d="M109.524,5.728c-0.497-0.204-0.995-0.402-1.497-0.596C99.299,1.743,90.259,0.017,81.154,0
	C70.225-0.032,59.619,2.078,49.629,6.275c-14.482,6.081-26.82,16.183-35.682,29.215C9.509,42.023,6.063,49.142,3.704,56.65
	C1.266,64.409,0.019,72.5,0,80.692c-0.032,10.929,2.08,21.535,6.277,31.52c6.08,14.484,16.181,26.824,29.212,35.683
	c6.498,4.416,13.678,7.892,21.156,10.242c7.757,2.438,15.85,3.683,24.05,3.702c6.449,0.022,12.889-0.81,19.144-2.472
	c8.587-2.278,17.189-6.22,25.566-11.72c3.491-2.295,6.929-4.837,10.506-7.766l6.977-5.71l8.074,8.118l0.081-29.277l-29.281-0.083
	l9.668,9.726l-8.969,6.871c-6.654,5.101-13.31,8.994-19.784,11.569c-3.566,1.425-7.057,2.47-10.67,3.185
	c-3.761,0.742-7.445,1.101-11.267,1.086c-8.409-0.024-16.575-1.641-24.269-4.798l-0.798-0.332
	c-11.504-4.896-21.292-12.999-28.299-23.435c-3.498-5.208-6.208-10.888-8.057-16.874c-1.906-6.198-2.862-12.65-2.841-19.186
	c0.022-8.696,1.748-17.131,5.125-25.065c4.906-11.514,13.012-21.297,23.442-28.301c5.215-3.505,10.896-6.215,16.884-8.058
	c6.178-1.906,12.628-2.861,19.168-2.846c4.314,0.014,8.464,0.493,12.685,1.46c6.926,1.603,13.76,4.518,20.661,8.805
	c4.793,2.982,9.759,6.739,14.752,11.168c6.594,5.842,13.56,13.126,21.298,22.263c7.068,8.339,14.066,17.354,20.834,26.072
	l0.265,0.342c6.888,8.865,13.997,18.018,21.367,26.689c6.177,7.269,11.827,13.354,17.271,18.604c4.794,4.62,9.371,8.56,13.996,12.04
	c7.834,5.896,15.433,10.233,23.416,13.332c8.725,3.385,17.768,5.114,26.876,5.128c10.927,0.036,21.531-2.078,31.523-6.274
	c14.481-6.085,26.819-16.185,35.678-29.212c4.438-6.527,7.884-13.648,10.245-21.159c2.438-7.761,3.685-15.854,3.706-24.052
	c0.029-10.927-2.083-21.529-6.277-31.516c-6.08-14.482-16.183-26.819-29.213-35.68c-6.503-4.42-13.696-7.901-21.155-10.241
	c-7.757-2.439-15.849-3.686-24.049-3.707c-6.249-0.02-12.491,0.76-18.555,2.319c-8.354,2.146-16.724,5.861-24.876,11.047
	c-3.907,2.485-7.766,5.296-11.798,8.592l-6.977,5.706l-8.061-8.108l-0.081,29.274l29.275,0.08l-9.644-9.694l9.586-7.399
	c6.676-5.029,13.336-8.839,19.815-11.337c3.483-1.342,6.868-2.318,10.355-2.986c3.637-0.696,7.202-1.029,10.906-1.019
	c8.414,0.027,16.586,1.644,24.289,4.805l0.777,0.325c11.513,4.902,21.3,13.006,28.302,23.44c3.507,5.223,6.219,10.901,8.06,16.882
	c1.902,6.179,2.858,12.631,2.842,19.171c-0.025,8.702-1.751,17.134-5.128,25.07c-4.901,11.51-13.009,21.298-23.441,28.299
	c-5.208,3.5-10.889,6.214-16.882,8.058c-6.188,1.906-12.637,2.862-19.17,2.844c-4.337-0.015-8.484-0.494-12.69-1.461
	c-6.895-1.591-13.759-4.519-20.651-8.806c-4.814-2.994-9.777-6.747-14.755-11.162c-6.598-5.852-13.564-13.132-21.301-22.266
	c-6.985-8.24-14.012-17.287-20.807-26.037l-0.351-0.449c-6.847-8.814-13.925-17.927-21.307-26.615
	c-6.171-7.257-11.822-13.347-17.273-18.611c-4.773-4.602-9.353-8.542-13.995-12.037C124.102,12.934,116.934,8.769,109.524,5.728z"/>
</svg>
