<?xml version="1.0" encoding="utf-8"?>
<!-- Generator: Adobe Illustrator 16.0.0, SVG Export Plug-In . SVG Version: 6.00 Build 0)  -->
<!DOCTYPE svg PUBLIC "-//W3C//DTD SVG 1.1//EN" "http://www.w3.org/Graphics/SVG/1.1/DTD/svg11.dtd">
<svg version="1.1" id="Understand" xmlns="http://www.w3.org/2000/svg" xmlns:xlink="http://www.w3.org/1999/xlink" x="0px" y="0px"
	 width="291.879px" height="319.241px" viewBox="0 0 291.879 319.241" enable-background="new 0 0 291.879 319.241"
	 xml:space="preserve">
<g>
	<g>
		<g>
			<g>
				<path fill="#666666" d="M125.45,279.908c8.121-1.393,16.739-6.262,19.242-14.621c2.999-10.017-11.776-10.458-17.781-12.028
					c-14.552-3.807-28.955-8.36-43.928-10.229c-8.925-1.113-16.87-0.821-24.111,4.688c-10.53,8.012-15.086,22.108-2.94,31.089
					c9.469,7.001,22.249,9.755,33.741,10.979c1.75,0.187,0.98,2.242,0.69,3.891c-0.374,2.126-0.969,4.219-1.52,6.304
					c-1.072,4.059-2.401,8.261-2.331,12.501c0.111,6.702,8.951,7.508,13.741,6.28c1.958-0.502,2.918-3.843,3.805-5.411
					c1.724-3.051,3.589-6.022,5.466-8.98c5.533-8.718,11.407-17.24,17.437-25.622c1.876-2.607-2.453-5.071-4.311-2.488
					c-3.602,5.005-7.108,10.08-10.566,15.186c-2.797,4.129-5.533,8.301-8.188,12.522c-1.238,1.967-2.438,3.958-3.612,5.964
					c-1.813,3.097-1.898,5.022-6.053,4.324c-5.134-0.863-1.716-8.681-0.877-11.858c1.044-3.959,2.402-8.092,2.293-12.232
					c-0.063-2.443-1.395-4.68-3.901-5.148c-6.993-1.306-13.734-2.087-20.584-4.24c-7.353-2.312-19.383-7.519-17.711-17.215
					c1.041-6.038,6.44-10.953,11.459-13.924c4.041-2.393,8.562-2.228,13.152-2.046c7.974,0.316,15.891,2.196,23.613,4.084
					c7.396,1.809,14.719,3.919,22.072,5.894c3.68,0.988,7.372,1.923,11.078,2.806c2,0.477,5.213,0.232,5.197,2.862
					c-0.04,6.976-10.532,10.949-15.861,11.862C120.997,275.643,122.313,280.445,125.45,279.908z"/>
			</g>
		</g>
		<g>
			<g>
				<path fill="#666666" d="M284.219,162.654c4.942,17.123-5.042,34.258-21.902,39.53c-1.557,0.487-3.167,0.758-4.777,0.987
					c-1.371,0.196-3.227,2.421-4.214,3.119c-3.792,2.685-8.357,3.904-12.869,4.684c-8.531,1.475-17.38,0.543-25.986,1.271
					c-1.379,0.116-2.46,1.022-2.507,2.472c-0.432,13.279-9.277,24.802-21.801,29.099c-1.723,0.591-4.11,0.442-5.224,2.083
					c-1.644,2.419-4.461,3.62-7.106,4.596c-6.161,2.271-12.95,2.641-19.445,2.32c-24.972-1.229-48.317-12.779-73.031-15.865
					c-10.211-1.275-19.819-1.426-28.613,4.426c-4.199,2.795-8.119,5.8-13.403,5.693c-4.183-0.084-8.787-2.911-12.266-4.997
					C10.462,229.71,3.501,205.563,5.408,182.838c0.931-11.09,3.414-22.819,8.555-32.767c1.723-3.333,4.821-5.188,3.988-9.095
					c-1.396-6.554-0.41-13.388,1.638-19.679c3.953-12.144,13.595-22.11,24.577-28.214c5.408-3.006,10.774-3.668,16.58-5.224
					c1.631-0.437,2.134-2.471,2.873-3.772c1.277-2.245,2.972-4.201,4.753-6.054c15.043-15.656,41.872-21.124,62.489-16.54
					c2.534,0.563,4.999,1.391,7.419,2.319c1.61,0.618,3.635,2.324,5.432,1.314c3.743-2.105,7.913-3.123,12.112-3.876
					c10.452-1.877,21.629-1.245,31.983,0.878c5.805,1.189,11.486,3.107,16.569,6.181c1.655,1.001,3.82,3.975,5.849,3.944
					c3.192-0.048,6.307,0.282,9.441,0.887c12.712,2.455,28.027,9.958,32.653,22.937c0.856,2.403,6.841,4.149,8.951,5.585
					c5.232,3.561,9.554,8.451,12.598,13.975c1.54,2.794,2.429,5.839,3.012,8.958c0.732,3.914-0.513,6.294,2.267,9.366
					c6.943,7.676,10.116,17.177,5.32,26.805c-1.426,2.862,2.877,5.368,4.311,2.489c3.569-7.164,4.326-14.972,0.845-22.372
					c-0.937-1.991-2-3.837-3.215-5.671c-0.951-1.435-4.328-4.216-4.254-5.847c0.188-4.155-0.743-8.369-2.175-12.24
					c-3.827-10.356-13.844-20.814-24.598-24.094c0.582,0.585,1.165,1.171,1.747,1.757c-3.984-11.177-14.022-18.369-24.589-22.841
					c-5.008-2.12-10.325-3.638-15.729-4.298c-1.917-0.234-4.91,0.212-6.216-0.933c-1.95-1.71-4.198-3.067-6.482-4.273
					c-10.046-5.306-22.116-6.897-33.323-7.168c-9.798-0.237-20.889,0.66-29.6,5.559c0.835-0.003,1.67-0.006,2.505-0.009
					c-15.603-7.483-33.601-7.115-49.977-2.444C79.807,62.348,64.416,70.585,57.946,84.21c0.725-0.415,1.448-0.83,2.173-1.245
					c-28.357,3.496-52.874,31.638-46.672,60.726c0.212-0.798,0.423-1.597,0.635-2.395c-6.047,6.375-8.744,15.771-10.803,24.078
					c-2.729,11.01-3.91,22.668-2.948,33.981c1.725,20.284,13.476,39.378,31.591,48.907c8.106,4.264,15.502,4.925,23.488-0.009
					c4.039-2.495,7.581-5.616,12.359-6.577c5.882-1.184,12.432-0.456,18.308,0.358c24.473,3.389,47.494,14.098,72.273,15.761
					c7.411,0.497,15.083-0.395,22.064-2.969c2.699-0.995,5.127-2.422,7.238-4.37c1.878-1.733,4.326-1.875,6.855-2.984
					c13.134-5.758,21.966-18.348,22.433-32.719c-0.836,0.824-1.671,1.648-2.507,2.472c9.581-0.81,19.225-0.044,28.738-1.688
					c4.517-0.78,8.807-2.518,12.673-4.951c1.88-1.183,3.098-2.574,5.375-2.997c2.235-0.415,4.45-1.188,6.525-2.104
					c17.153-7.572,26.527-25.943,21.281-44.118C288.138,158.285,283.328,159.568,284.219,162.654z"/>
			</g>
		</g>
		<g>
			<g>
				<path fill="#666666" d="M110.274,217.907c-9.226-3.126-19.88-2.47-29.222-0.003c-3.104,0.82-1.814,5.628,1.289,4.809
					c8.533-2.254,18.191-2.859,26.618-0.003C112.01,223.743,113.298,218.933,110.274,217.907L110.274,217.907z"/>
			</g>
		</g>
		<g>
			<g>
				<path fill="#666666" d="M187.111,244.654c-9.457,0.844-18.503-0.214-27.466-3.36c-3.038-1.066-4.323,3.746-1.314,4.803
					c9.336,3.277,18.889,4.416,28.745,3.536C190.249,249.35,190.305,244.369,187.111,244.654L187.111,244.654z"/>
			</g>
		</g>
		<g>
			<g>
				<path fill="#666666" d="M192.66,193.28c8.776,4.577,19.042,10.337,19.303,21.438c0.075,3.208,5.055,3.244,4.979,0.035
					c-0.308-13.122-11.204-20.262-21.793-25.783C192.309,187.488,189.808,191.793,192.66,193.28L192.66,193.28z"/>
			</g>
		</g>
		<g>
			<g>
				<path fill="#666666" d="M56.191,166.628c8.119,0.077,16.194-0.59,24.245-1.607c9.53-1.205,18.704-2.979,28.35-2.041
					c15.442,1.503,28.989,10.44,43.041,16.228c2.97,1.223,4.24-3.598,1.314-4.803c-14.027-5.776-27.017-13.937-42.272-16.145
					c-8.663-1.254-17.113-0.212-25.69,1.112c-9.572,1.478-19.261,2.369-28.952,2.277C53.011,161.618,52.985,166.598,56.191,166.628
					L56.191,166.628z"/>
			</g>
		</g>
		<g>
			<g>
				<path fill="#666666" d="M13.704,144.307c4.156,7.82,10.58,12.842,18.428,16.699c2.867,1.409,5.375-2.893,2.488-4.312
					c-7.122-3.5-12.844-7.799-16.621-14.908C16.492,138.952,12.2,141.476,13.704,144.307L13.704,144.307z"/>
			</g>
		</g>
		<g>
			<g>
				<path fill="#666666" d="M131.486,205.595c14.204,5.649,28.138,12.883,40.119,22.454c2.479,1.98,6.014-1.532,3.502-3.539
					c-12.699-10.146-27.247-17.728-42.307-23.718C129.814,199.604,128.54,204.423,131.486,205.595L131.486,205.595z"/>
			</g>
		</g>
		<g>
			<g>
				<path fill="#666666" d="M75.239,162.223c-4.309,13.801,9.797,22.629,20.178,28.119c2.833,1.499,5.332-2.807,2.488-4.311
					c-8.158-4.315-21.365-11.28-17.863-22.494C81.002,160.463,76.193,159.168,75.239,162.223L75.239,162.223z"/>
			</g>
		</g>
		<g>
			<g>
				<path fill="#666666" d="M160.132,220.408c7.394,0.964,15.305,0.233,22.335-2.215c3.013-1.05,1.745-5.865-1.289-4.809
					c-6.663,2.321-14.005,2.958-21.011,2.045C156.983,215.015,156.995,220,160.132,220.408L160.132,220.408z"/>
			</g>
		</g>
		<g>
			<g>
				<path fill="#666666" d="M41.366,178.984c2.748,15.393,14.712,27.367,30.969,24.412c3.16-0.574,1.847-5.379-1.289-4.809
					c-13.638,2.479-22.652-8.463-24.871-20.892C45.61,174.534,40.807,175.849,41.366,178.984L41.366,178.984z"/>
			</g>
		</g>
		<g>
			<g>
				<path fill="#666666" d="M50.082,193.315c-8.753,8.121-23.355,4.587-32.986-0.272c-2.855-1.441-5.36,2.862-2.488,4.311
					c11.782,5.945,28.422,9.291,39.014-0.536C55.976,194.633,52.434,191.134,50.082,193.315L50.082,193.315z"/>
			</g>
		</g>
		<g>
			<g>
				<path fill="#666666" d="M38.872,198.213c-6.22,4.4-8.407,12.121-7.425,19.457c0.426,3.175,5.229,1.847,4.809-1.289
					c0.173,1.289-0.017-0.509-0.031-0.798c-0.062-1.215,0.003-2.431,0.117-3.64c0.346-3.677,1.995-7.273,5.052-9.436
					C43.99,200.67,41.499,196.355,38.872,198.213L38.872,198.213z"/>
			</g>
		</g>
		<g>
			<g>
				<path fill="#666666" d="M101.386,104.533c15.823,3.487,33.898-4.219,47.444-12.014c2.779-1.6,0.265-5.897-2.521-4.294
					c-12.283,7.068-29.226,14.675-43.608,11.506C99.57,99.042,98.25,103.842,101.386,104.533L101.386,104.533z"/>
			</g>
		</g>
		<g>
			<g>
				<path fill="#666666" d="M60.746,87.859c7.599-1.274,15.78,1.055,22.215,5.189c2.706,1.739,5.183-2.581,2.488-4.312
					c-7.604-4.886-17.074-7.182-25.992-5.687C56.291,83.582,57.609,88.385,60.746,87.859L60.746,87.859z"/>
			</g>
		</g>
		<g>
			<g>
				<path fill="#666666" d="M78.712,88.455c6.349-10.157,20.314-13.868,31.415-14.031c3.211-0.047,3.244-5.026,0.035-4.979
					c-12.986,0.19-28.431,4.792-35.761,16.521C72.696,88.693,77.014,91.173,78.712,88.455L78.712,88.455z"/>
			</g>
		</g>
		<g>
			<g>
				<path fill="#666666" d="M281.352,128.987c-6.63-6.085-16.42-9.778-21.031-17.751c-1.606-2.776-5.904-0.262-4.295,2.521
					c4.954,8.565,14.766,12.292,21.824,18.77C280.207,134.689,283.725,131.164,281.352,128.987L281.352,128.987z"/>
			</g>
		</g>
		<g>
			<g>
				<path fill="#666666" d="M153.022,121.112c7.466,9.515,18.356,8.866,29.286,7.714c5.849-0.616,11.999-1.157,17.485,1.394
					c7.681,3.571,9.974,10.76,7.901,18.491c-0.832,3.106,3.972,4.413,4.803,1.314c1.623-6.058,1.835-12.207-2.278-17.338
					c-3.943-4.919-8.964-8.044-15.212-9.007c-13.092-2.017-28.731,6.323-38.483-6.107
					C154.548,115.054,151.064,118.617,153.022,121.112L153.022,121.112z"/>
			</g>
		</g>
		<g>
			<g>
				<path fill="#666666" d="M196.842,126.752c3.19-10.937,14.887-7.722,23.52-6.541c8.236,1.126,17.1,1.374,22.052-6.47
					c1.718-2.72-2.601-5.199-4.311-2.489c-5.241,8.301-18.591,3.616-26.412,2.804c-9.216-0.956-16.897,1.945-19.651,11.382
					C191.138,128.528,195.944,129.828,196.842,126.752L196.842,126.752z"/>
			</g>
		</g>
		<g>
			<g>
				<path fill="#666666" d="M208.492,71.532c3.361,2.908,6.558,6.721,7.766,11.054c0.861,3.091,5.671,1.806,4.809-1.288
					c-1.438-5.161-5.054-9.829-9.072-13.305C209.582,65.906,206.057,69.426,208.492,71.532L208.492,71.532z"/>
			</g>
		</g>
		<g>
			<g>
				<path fill="#666666" d="M31.772,117.006c5.522-1.108,16.552-2.787,20.386,2.495c1.866,2.57,6.184,0.082,4.295-2.521
					c-5.533-7.621-17.809-6.42-25.97-4.783C27.333,112.83,28.641,117.634,31.772,117.006L31.772,117.006z"/>
			</g>
		</g>
		<g>
			<g>
				<path fill="#666666" d="M38.692,130.576c7.063-7.119,19.453-12.968,28.975-7.479c7.381,4.254,7.819,14.878,15.294,18.946
					c2.817,1.533,5.313-2.774,2.488-4.312c-3.719-2.023-5.419-7.035-7.482-10.5c-2.703-4.538-6.222-8.006-11.131-10.032
					c-10.696-4.414-24.148,2.282-31.683,9.875C32.894,129.352,36.427,132.859,38.692,130.576L38.692,130.576z"/>
			</g>
		</g>
		<g>
			<g>
				<path fill="#666666" d="M111.765,159.288c-3.528-8.118-2.937-18.057-0.272-26.381c0.981-3.067-3.828-4.36-4.803-1.314
					c-3.107,9.712-3.306,20.814,0.78,30.216C108.746,164.744,113.029,162.198,111.765,159.288L111.765,159.288z"/>
			</g>
		</g>
		<g>
			<g>
				<path fill="#666666" d="M236.556,134.739c9.407-0.309,15.302,8.21,17.318,16.397c0.204,0.829,0.915,1.553,1.747,1.757
					c10.762,2.635,14.791,19.755,13.377,29.005c-0.48,3.142,4.318,4.481,4.803,1.314c1.821-11.916-3.186-31.771-16.865-35.121
					c0.582,0.585,1.165,1.171,1.747,1.757c-2.534-10.292-10.461-20.47-22.092-20.088
					C233.386,129.864,233.348,134.844,236.556,134.739L236.556,134.739z"/>
			</g>
		</g>
		<g>
			<g>
				<path fill="#666666" d="M258.201,203.087c-4.967,0.261-9.636-0.495-13.992-2.963c-1.287-0.729-2.441-1.639-3.516-2.649
					c-0.256-0.24-1.666-1.916-0.92-0.931c-1.91-2.525-6.231-0.041-4.295,2.521c5.202,6.879,14.424,9.435,22.688,9
					C261.362,207.897,261.406,202.918,258.201,203.087L258.201,203.087z"/>
			</g>
		</g>
		<g>
			<g>
				<path fill="#666666" d="M202.427,196.817c5.363-6.339,13.962-8.525,21.899-6.229c3.092,0.895,4.394-3.912,1.314-4.803
					c-9.55-2.762-20.289-0.109-26.753,7.53C196.83,195.748,200.348,199.274,202.427,196.817L202.427,196.817z"/>
			</g>
		</g>
		<g>
			<g>
				<path fill="#666666" d="M174.718,143.89c5.343,2.61,4.511,11.956,4.657,16.894c0.159,5.374-0.247,12.239,3.113,16.809
					c1.88,2.556,6.199,0.069,4.295-2.521c-6.92-9.409,3.243-29.23-9.577-35.494C174.336,138.176,171.828,142.478,174.718,143.89
					L174.718,143.89z"/>
			</g>
		</g>
		<g>
			<g>
				<path fill="#666666" d="M183.148,162.949c3.102-2.198,7.287-0.854,10.627,0.093c4.781,1.356,9.407,3.255,14.113,4.842
					c8.807,2.969,18.576,5.144,27.273,0.749c2.864-1.447,0.335-5.737-2.521-4.294c-9.462,4.782-21.064-0.354-30.203-3.631
					c-6.259-2.244-15.566-6.478-21.811-2.052C178.032,160.494,180.523,164.809,183.148,162.949L183.148,162.949z"/>
			</g>
		</g>
		<g>
			<g>
				<path fill="#666666" d="M140.914,209.018c6.334-1.696,11.459-6.097,15.823-10.819c2.173-2.351-1.354-5.867-3.539-3.502
					c-3.768,4.077-8.086,8.043-13.573,9.513C136.524,205.039,137.812,209.848,140.914,209.018L140.914,209.018z"/>
			</g>
		</g>
		<g>
			<g>
				<path fill="#666666" d="M211.869,92.711c-5.62-2.3-11.379-4.296-17.196-6.034c-5.918-1.768-15.982-5.382-21.812-1.613
					c-2.684,1.735-0.183,6.042,2.521,4.294c4.814-3.112,15.179,1.256,20.012,2.738c5.124,1.571,10.2,3.387,15.161,5.417
					C213.527,98.729,214.799,93.91,211.869,92.711L211.869,92.711z"/>
			</g>
		</g>
		<g>
			<g>
				<path fill="#666666" d="M184.227,111.852c-2.795-14.774-11.53-46.979-32.12-42.322c-3.135,0.709-1.834,5.515,1.289,4.809
					c10.741-2.43,17.02,11.127,20.239,19.109c2.547,6.311,4.518,13,5.783,19.692C180.016,116.297,184.819,114.986,184.227,111.852
					L184.227,111.852z"/>
			</g>
		</g>
		<g>
			<g>
				<path fill="#666666" d="M90.039,96.93c15.624,10.696,32.732,19.47,40.611,37.729c1.269,2.939,5.552,0.392,4.295-2.521
					c-8.22-19.047-26.114-28.358-42.418-39.52C89.875,90.803,87.405,95.127,90.039,96.93L90.039,96.93z"/>
			</g>
		</g>
		<g>
			<g>
				<path fill="#666666" d="M129.618,168.847c3.88-0.086,7.826-1.245,11.212-3.101c6.72-3.683,9.104-10.994,8.254-18.276
					c-0.367-3.151-5.35-3.215-4.979-0.036c0.736,6.314-0.956,11.582-6.808,14.552c-2.295,1.165-5.114,1.825-7.645,1.881
					C126.444,163.939,126.409,168.918,129.618,168.847L129.618,168.847z"/>
			</g>
		</g>
		<g>
			<g>
				<path fill="#666666" d="M103.527,205.956c-4.1,17.766,17.813,29.012,31.122,33.259c3.068,0.979,4.361-3.83,1.314-4.803
					c-10.021-3.198-20.941-8.07-25.995-17.909c-1.382-2.691-2.116-7.166-1.639-9.232
					C109.052,204.145,104.25,202.827,103.527,205.956L103.527,205.956z"/>
			</g>
		</g>
		<g>
			<g>
				<path fill="#666666" d="M67.143,236.782c-7.858,0.198-16.816-2.408-22.675-7.006c-2.493-1.957-6.03,1.556-3.502,3.539
					c7.329,5.752,16.889,8.679,26.142,8.445C70.315,241.681,70.352,236.701,67.143,236.782L67.143,236.782z"/>
			</g>
		</g>
		<g>
			<g>
				<path fill="#666666" d="M253.874,151.136c1.848,11.902-2.073,25.146-7.339,35.807c-1.416,2.865,2.887,5.372,4.311,2.488
					c5.908-11.959,9.908-26.241,7.837-39.583C258.19,146.677,253.387,147.999,253.874,151.136L253.874,151.136z"/>
			</g>
		</g>
		<g>
			<g>
				<path fill="#666666" d="M91.07,289.907c4.707,0.048,8.855-0.948,12.949-3.272c4.766-2.707,8.546-5.527,14.143-6.391
					c3.17-0.489,1.849-5.293-1.289-4.809c-9.534,1.472-15.915,9.593-25.768,9.493C87.89,284.896,87.864,289.875,91.07,289.907
					L91.07,289.907z"/>
			</g>
		</g>
		<g>
			<g>
				<path fill="#666666" d="M124.823,275.015c-13.116,1.06-27.037-0.515-37.473-9.238c-2.58-2.157-4.798-4.722-6.59-7.562
					c-0.7-1.11-1.677-3.086-1.8-3.435c-1.059-3.008-5.875-1.742-4.809,1.289c7.053,20.044,32.087,25.425,50.636,23.925
					C127.967,279.736,128.021,274.756,124.823,275.015L124.823,275.015z"/>
			</g>
		</g>
	</g>
	<polygon fill="#666666" points="240.129,42.772 233.832,36.354 242.03,17.254 219.052,37.812 225.35,44.228 217.153,63.33 	"/>
	<polygon fill="#666666" points="143.704,21.478 134.015,21.077 126.361,0 123.462,33.137 133.152,33.531 140.807,54.611 	"/>
	<polygon fill="#666666" points="54.032,39.654 41.832,41.021 28.196,16.133 30.959,58.139 43.158,56.767 56.798,81.656 	"/>
</g>
</svg>
