<?xml version="1.0" encoding="utf-8"?>
<!-- Generator: Adobe Illustrator 16.0.0, SVG Export Plug-In . SVG Version: 6.00 Build 0)  -->
<!DOCTYPE svg PUBLIC "-//W3C//DTD SVG 1.1//EN" "http://www.w3.org/Graphics/SVG/1.1/DTD/svg11.dtd">
<svg version="1.1" id="Layer_1" xmlns="http://www.w3.org/2000/svg" xmlns:xlink="http://www.w3.org/1999/xlink" x="0px" y="0px"
	 width="425.682px" height="251.94px" viewBox="0 0 425.682 251.94" enable-background="new 0 0 425.682 251.94"
	 xml:space="preserve">
<g>
	<g>
		<g>
			<path fill="#666666" d="M146.175,172.893c0,7.93-6.451,14.38-14.381,14.38c-7.928,0-14.379-6.45-14.379-14.38
				c0-7.929,6.451-14.379,14.379-14.379C139.724,158.514,146.175,164.964,146.175,172.893z M120.349,172.893
				c0,6.312,5.135,11.445,11.445,11.445c6.312,0,11.447-5.134,11.447-11.445c0-6.311-5.135-11.445-11.447-11.445
				C125.483,161.448,120.349,166.583,120.349,172.893z"/>
		</g>
		<g>
			<path fill="#666666" d="M184.308,172.893c0,7.93-6.451,14.38-14.381,14.38c-7.928,0-14.379-6.45-14.379-14.38
				c0-7.929,6.451-14.379,14.379-14.379C177.856,158.514,184.308,164.964,184.308,172.893z M158.481,172.893
				c0,6.312,5.135,11.445,11.445,11.445c6.312,0,11.447-5.134,11.447-11.445c0-6.311-5.135-11.445-11.447-11.445
				C163.616,161.448,158.481,166.583,158.481,172.893z"/>
		</g>
		<g>
			<path fill="#666666" d="M222.44,172.893c0,7.93-6.451,14.38-14.379,14.38c-7.93,0-14.379-6.45-14.379-14.38
				c0-7.929,6.449-14.379,14.379-14.379C215.989,158.514,222.44,164.964,222.44,172.893z M196.616,172.893
				c0,6.312,5.135,11.445,11.445,11.445s11.445-5.134,11.445-11.445c0-6.311-5.135-11.445-11.445-11.445
				S196.616,166.583,196.616,172.893z"/>
		</g>
		<g>
			<path fill="#666666" d="M260.573,172.893c0,7.93-6.451,14.38-14.379,14.38c-7.93,0-14.379-6.45-14.379-14.38
				c0-7.929,6.449-14.379,14.379-14.379C254.122,158.514,260.573,164.964,260.573,172.893z M234.749,172.893
				c0,6.312,5.135,11.445,11.445,11.445s11.445-5.134,11.445-11.445c0-6.311-5.135-11.445-11.445-11.445
				S234.749,166.583,234.749,172.893z"/>
		</g>
		<g>
			<path fill="#666666" d="M298.708,172.893c0,7.93-6.451,14.38-14.381,14.38c-7.928,0-14.379-6.45-14.379-14.38
				c0-7.929,6.451-14.379,14.379-14.379C292.257,158.514,298.708,164.964,298.708,172.893z M272.882,172.893
				c0,6.312,5.135,11.445,11.445,11.445c6.312,0,11.447-5.134,11.447-11.445c0-6.311-5.135-11.445-11.447-11.445
				C278.017,161.448,272.882,166.583,272.882,172.893z"/>
		</g>
		<g>
			<path fill="#666666" d="M336.841,172.893c0,7.93-6.451,14.38-14.381,14.38c-7.928,0-14.379-6.45-14.379-14.38
				c0-7.929,6.451-14.379,14.379-14.379C330.39,158.514,336.841,164.964,336.841,172.893z M311.015,172.893
				c0,6.312,5.135,11.445,11.445,11.445c6.312,0,11.447-5.134,11.447-11.445c0-6.311-5.135-11.445-11.447-11.445
				C316.149,161.448,311.015,166.583,311.015,172.893z"/>
		</g>
	</g>
	<g>
		<path fill="#666666" d="M261.84,237.56c0,7.93-6.451,14.38-14.379,14.38c-7.93,0-14.379-6.45-14.379-14.38
			c0-7.929,6.449-14.379,14.379-14.379C255.389,223.181,261.84,229.631,261.84,237.56z M236.016,237.56
			c0,6.312,5.135,11.445,11.445,11.445s11.445-5.134,11.445-11.445c0-6.311-5.135-11.445-11.445-11.445
			S236.016,231.25,236.016,237.56z"/>
	</g>
	<g>
		<path fill="#666666" d="M221.962,234.37c0,7.93-6.451,14.38-14.379,14.38c-7.93,0-14.379-6.45-14.379-14.38
			c0-7.929,6.449-14.379,14.379-14.379C215.511,219.991,221.962,226.441,221.962,234.37z M196.138,234.37
			c0,6.312,5.135,11.445,11.445,11.445s11.445-5.134,11.445-11.445c0-6.311-5.135-11.445-11.445-11.445
			S196.138,228.059,196.138,234.37z"/>
	</g>
	<g>
		<path fill="#666666" d="M68.508,172.893c0,7.93-6.451,14.38-14.381,14.38c-7.928,0-14.379-6.45-14.379-14.38
			c0-7.929,6.451-14.379,14.379-14.379C62.057,158.514,68.508,164.964,68.508,172.893z M42.682,172.893
			c0,6.312,5.135,11.445,11.445,11.445c6.312,0,11.447-5.134,11.447-11.445c0-6.311-5.135-11.445-11.447-11.445
			C47.816,161.448,42.682,166.583,42.682,172.893z"/>
	</g>
	<g>
		<path fill="#666666" d="M423.841,172.893c0,7.93-6.451,14.38-14.381,14.38c-7.928,0-14.379-6.45-14.379-14.38
			c0-7.929,6.451-14.379,14.379-14.379C417.39,158.514,423.841,164.964,423.841,172.893z M398.015,172.893
			c0,6.312,5.135,11.445,11.445,11.445c6.312,0,11.447-5.134,11.447-11.445c0-6.311-5.135-11.445-11.447-11.445
			C403.149,161.448,398.015,166.583,398.015,172.893z"/>
	</g>
	<g>
		<path fill="#666666" d="M30.175,172.893c0,7.93-6.451,14.38-14.381,14.38c-7.928,0-14.379-6.45-14.379-14.38
			c0-7.929,6.451-14.379,14.379-14.379C23.724,158.514,30.175,164.964,30.175,172.893z M4.349,172.893
			c0,6.312,5.135,11.445,11.445,11.445c6.312,0,11.447-5.134,11.447-11.445c0-6.311-5.135-11.445-11.447-11.445
			C9.483,161.448,4.349,166.583,4.349,172.893z"/>
	</g>
	<g>
		<g>
			<path fill="#666666" d="M262.104,235.5c-0.5,0.302-0.837,0.848-0.843,1.474c-0.01,0.959,0.761,1.746,1.721,1.756
				c0.026,0.001,0.67,0.007,1.827-0.041c0.961-0.04,1.706-0.851,1.667-1.811c-0.04-0.959-0.851-1.706-1.812-1.666
				c-1.054,0.044-1.641,0.04-1.647,0.039C262.684,235.248,262.37,235.339,262.104,235.5z"/>
		</g>
		<g>
			<path fill="#666666" d="M355.971,107.032c0.958-0.077,1.797,0.636,1.874,1.595c0.094,1.174,0.18,2.356,0.256,3.516
				c0.063,0.96-0.663,1.787-1.622,1.85c-0.958,0.062-1.787-0.664-1.85-1.623c-0.074-1.141-0.159-2.308-0.253-3.465
				c-0.054-0.68,0.29-1.3,0.837-1.63C355.437,107.14,355.693,107.054,355.971,107.032z M356.658,117.508
				c0.959-0.033,1.765,0.718,1.797,1.678c0.041,1.185,0.072,2.371,0.094,3.527c0.018,0.96-0.747,1.753-1.708,1.771
				c-0.96,0.017-1.754-0.748-1.771-1.708c-0.021-1.138-0.052-2.306-0.092-3.471c-0.022-0.654,0.318-1.236,0.842-1.551
				C356.065,117.607,356.351,117.519,356.658,117.508z M356.845,128.004c0.961,0.017,1.726,0.808,1.709,1.769
				c-0.021,1.189-0.052,2.378-0.093,3.531c-0.034,0.96-0.841,1.712-1.801,1.676c-0.96-0.035-1.71-0.841-1.676-1.8
				c0.04-1.133,0.071-2.298,0.091-3.467c0.012-0.622,0.346-1.162,0.842-1.461C356.188,128.089,356.506,127.999,356.845,128.004z
				 M356.467,138.495c0.958,0.073,1.676,0.909,1.603,1.866c-0.089,1.181-0.191,2.366-0.304,3.524
				c-0.094,0.956-0.945,1.656-1.901,1.562c-0.955-0.093-1.655-0.943-1.562-1.899c0.11-1.134,0.211-2.294,0.299-3.45
				c0.045-0.583,0.371-1.078,0.838-1.359C355.736,138.559,356.093,138.467,356.467,138.495z M355.446,148.941
				c0.952,0.137,1.611,1.018,1.475,1.968c-0.168,1.174-0.352,2.351-0.545,3.5c-0.159,0.947-1.057,1.585-2.003,1.426
				c-0.949-0.16-1.587-1.057-1.428-2.004c0.189-1.121,0.368-2.271,0.532-3.416c0.077-0.538,0.393-0.982,0.824-1.243
				C354.634,148.973,355.033,148.882,355.446,148.941z M353.7,159.292c0.938,0.207,1.529,1.137,1.321,2.074
				c-0.255,1.152-0.53,2.313-0.816,3.452c-0.234,0.933-1.18,1.497-2.111,1.263c-0.932-0.233-1.497-1.179-1.264-2.11
				c0.279-1.108,0.546-2.238,0.795-3.358c0.107-0.483,0.407-0.876,0.8-1.112C352.795,159.276,353.246,159.19,353.7,159.292z
				 M351.139,169.468c0.917,0.288,1.425,1.265,1.137,2.181c-0.355,1.132-0.732,2.267-1.119,3.373
				c-0.317,0.906-1.309,1.386-2.216,1.068c-0.907-0.316-1.385-1.309-1.068-2.216c0.375-1.072,0.74-2.172,1.086-3.27
				c0.132-0.421,0.41-0.756,0.76-0.967C350.13,169.389,350.644,169.312,351.139,169.468z M347.674,179.375
				c0.885,0.376,1.296,1.397,0.92,2.281c-0.467,1.098-0.954,2.191-1.448,3.251c-0.408,0.871-1.442,1.247-2.312,0.84
				c-0.87-0.405-1.246-1.44-0.841-2.312c0.479-1.023,0.949-2.08,1.4-3.142c0.148-0.35,0.398-0.625,0.701-0.808
				C346.555,179.208,347.14,179.147,347.674,179.375z M343.232,188.881c0.838,0.469,1.139,1.528,0.671,2.367
				c-0.58,1.037-1.185,2.073-1.796,3.078c-0.499,0.821-1.569,1.081-2.392,0.581c-0.819-0.499-1.08-1.568-0.581-2.39
				c0.591-0.969,1.173-1.966,1.73-2.966c0.152-0.273,0.368-0.489,0.619-0.641C342.002,188.6,342.667,188.566,343.232,188.881z
				 M271.492,234.615c1.12-0.144,2.267-0.309,3.406-0.494c0.948-0.153,1.842,0.49,1.996,1.438c0.153,0.948-0.489,1.842-1.438,1.997
				c-1.18,0.191-2.366,0.363-3.525,0.51c-0.954,0.121-1.825-0.552-1.946-1.506c-0.09-0.704,0.256-1.364,0.828-1.709
				C271.014,234.729,271.244,234.646,271.492,234.615z M337.771,197.843c0.779,0.562,0.956,1.648,0.394,2.428
				c-0.692,0.96-1.413,1.92-2.145,2.853c-0.593,0.756-1.686,0.889-2.442,0.296c-0.756-0.592-0.889-1.686-0.296-2.442
				c0.702-0.896,1.396-1.817,2.062-2.74c0.141-0.196,0.316-0.355,0.512-0.473C336.433,197.416,337.188,197.422,337.771,197.843z
				 M281.655,232.789c1.112-0.258,2.238-0.538,3.342-0.832c0.928-0.247,1.881,0.305,2.13,1.232c0.246,0.928-0.304,1.88-1.233,2.129
				c-1.142,0.305-2.304,0.594-3.454,0.861c-0.935,0.216-1.87-0.367-2.086-1.304c-0.175-0.752,0.167-1.504,0.795-1.882
				C281.302,232.901,281.472,232.832,281.655,232.789z M331.296,206.103c0.705,0.651,0.749,1.752,0.097,2.457
				c-0.807,0.874-1.64,1.739-2.476,2.573c-0.681,0.678-1.781,0.676-2.461-0.004c-0.678-0.68-0.676-1.781,0.004-2.46
				c0.803-0.801,1.603-1.631,2.378-2.471c0.114-0.124,0.242-0.227,0.379-0.31C329.863,205.5,330.713,205.564,331.296,206.103z
				 M291.588,229.961c1.085-0.368,2.176-0.761,3.24-1.163c0.897-0.34,1.901,0.112,2.242,1.011c0.34,0.899-0.114,1.903-1.012,2.243
				c-1.102,0.417-2.229,0.821-3.351,1.202c-0.911,0.31-1.898-0.177-2.207-1.087c-0.268-0.788,0.062-1.635,0.747-2.048
				C291.354,230.056,291.467,230.002,291.588,229.961z M323.863,213.513c0.62,0.733,0.529,1.831-0.202,2.451
				c-0.901,0.764-1.834,1.522-2.771,2.253c-0.76,0.594-1.852,0.456-2.441-0.303c-0.591-0.757-0.456-1.85,0.303-2.441
				c0.899-0.702,1.795-1.429,2.661-2.163c0.073-0.062,0.149-0.115,0.229-0.163C322.357,212.714,323.304,212.853,323.863,213.513z
				 M301.171,226.139c1.038-0.479,2.08-0.983,3.095-1.497c0.856-0.435,1.904-0.092,2.338,0.766c0.434,0.856,0.093,1.898-0.766,2.337
				c-1.054,0.533-2.133,1.057-3.209,1.554c-0.872,0.402-1.905,0.021-2.309-0.851c-0.375-0.812-0.07-1.767,0.679-2.218
				C301.055,226.197,301.111,226.167,301.171,226.139z M315.584,219.968c0.529,0.803,0.31,1.882-0.493,2.41
				c-0.983,0.648-1.997,1.291-3.016,1.906c-0.002,0.002-0.002,0.002-0.004,0.003c-0.821,0.495-1.888,0.231-2.385-0.59
				c-0.498-0.821-0.235-1.892,0.586-2.389c0.981-0.594,1.957-1.21,2.902-1.834c0.02-0.014,0.04-0.026,0.061-0.039
				C314.03,218.958,315.069,219.187,315.584,219.968z"/>
		</g>
		<g>
			<path fill="#666666" d="M354.354,98.511c-0.565,0.341-0.91,0.99-0.83,1.689c0.066,0.575,0.13,1.147,0.192,1.718
				c0.104,0.955,0.962,1.645,1.917,1.541c0.954-0.104,1.646-0.962,1.541-1.917c-0.062-0.578-0.128-1.157-0.194-1.739
				c-0.109-0.955-0.973-1.639-1.927-1.529C354.798,98.303,354.562,98.387,354.354,98.511z"/>
		</g>
		<g>
			<g>
				<polygon fill="#666666" points="342.236,112.952 345.017,115.048 355.323,101.337 368.247,112.62 370.535,109.995 
					354.792,96.256 				"/>
			</g>
		</g>
	</g>
</g>
<g>
	<g>
		<path fill="#666666" d="M139.098,151.316c0,0.344-0.169,0.68-0.479,0.88c-0.485,0.314-1.134,0.175-1.447-0.311l-13.191-20.416
			c-0.313-0.485-0.175-1.134,0.312-1.447c0.485-0.314,1.134-0.175,1.447,0.311l13.191,20.416
			C139.044,150.925,139.098,151.122,139.098,151.316z"/>
	</g>
	<g>
		<path fill="#666666" d="M140.549,132.003c0,0.247-0.087,0.494-0.263,0.693l-16.094,18.215c-0.383,0.433-1.045,0.475-1.479,0.091
			c-0.433-0.383-0.474-1.044-0.092-1.478l16.095-18.214c0.383-0.434,1.045-0.475,1.479-0.092
			C140.429,131.425,140.549,131.713,140.549,132.003z"/>
	</g>
</g>
<g>
	<g>
		<path fill="#666666" d="M179.098,151.316c0,0.344-0.169,0.68-0.479,0.88c-0.485,0.314-1.134,0.175-1.447-0.311l-13.191-20.416
			c-0.313-0.485-0.175-1.134,0.312-1.447c0.485-0.314,1.134-0.175,1.447,0.311l13.191,20.416
			C179.044,150.925,179.098,151.122,179.098,151.316z"/>
	</g>
	<g>
		<path fill="#666666" d="M180.549,132.003c0,0.247-0.087,0.494-0.263,0.693l-16.094,18.215c-0.383,0.433-1.045,0.475-1.479,0.091
			c-0.433-0.383-0.474-1.044-0.092-1.478l16.095-18.214c0.383-0.434,1.045-0.475,1.479-0.092
			C180.429,131.425,180.549,131.713,180.549,132.003z"/>
	</g>
</g>
<g>
	<g>
		<path fill="#666666" d="M219.098,151.316c0,0.344-0.169,0.68-0.479,0.88c-0.485,0.314-1.134,0.175-1.447-0.311l-13.191-20.416
			c-0.313-0.485-0.175-1.134,0.312-1.447c0.485-0.314,1.134-0.175,1.447,0.311l13.191,20.416
			C219.044,150.925,219.098,151.122,219.098,151.316z"/>
	</g>
	<g>
		<path fill="#666666" d="M220.549,132.003c0,0.247-0.087,0.494-0.263,0.693l-16.094,18.215c-0.383,0.433-1.045,0.475-1.479,0.091
			c-0.433-0.383-0.474-1.044-0.092-1.478l16.095-18.214c0.383-0.434,1.045-0.475,1.479-0.092
			C220.429,131.425,220.549,131.713,220.549,132.003z"/>
	</g>
</g>
<g>
	<g>
		<path fill="#666666" d="M258.432,151.316c0,0.344-0.169,0.68-0.479,0.88c-0.485,0.314-1.134,0.175-1.447-0.311l-13.191-20.416
			c-0.313-0.485-0.175-1.134,0.312-1.447c0.485-0.314,1.134-0.175,1.447,0.311l13.191,20.416
			C258.378,150.925,258.432,151.122,258.432,151.316z"/>
	</g>
	<g>
		<path fill="#666666" d="M259.883,132.003c0,0.247-0.087,0.494-0.263,0.693l-16.094,18.215c-0.383,0.433-1.045,0.475-1.479,0.091
			c-0.433-0.383-0.474-1.044-0.092-1.478l16.095-18.214c0.383-0.434,1.045-0.475,1.479-0.092
			C259.763,131.425,259.883,131.713,259.883,132.003z"/>
	</g>
</g>
<g>
	<g>
		<path fill="#666666" d="M295.765,151.316c0,0.344-0.169,0.68-0.479,0.88c-0.485,0.314-1.134,0.175-1.447-0.311l-13.191-20.416
			c-0.313-0.485-0.175-1.134,0.312-1.447c0.485-0.314,1.134-0.175,1.447,0.311l13.191,20.416
			C295.711,150.925,295.765,151.122,295.765,151.316z"/>
	</g>
	<g>
		<path fill="#666666" d="M297.216,132.003c0,0.247-0.087,0.494-0.263,0.693l-16.094,18.215c-0.383,0.433-1.045,0.475-1.479,0.091
			c-0.433-0.383-0.474-1.044-0.092-1.478l16.095-18.214c0.383-0.434,1.045-0.475,1.479-0.092
			C297.096,131.425,297.216,131.713,297.216,132.003z"/>
	</g>
</g>
<g>
	<g>
		<path fill="#666666" d="M332.432,108.649c0,0.344-0.169,0.68-0.479,0.88c-0.485,0.314-1.134,0.175-1.447-0.311l-13.191-20.416
			c-0.313-0.485-0.175-1.134,0.312-1.447c0.485-0.314,1.134-0.175,1.447,0.311l13.191,20.416
			C332.378,108.258,332.432,108.455,332.432,108.649z"/>
	</g>
	<g>
		<path fill="#666666" d="M333.883,89.336c0,0.247-0.087,0.494-0.263,0.693l-16.094,18.215c-0.383,0.433-1.045,0.475-1.479,0.091
			c-0.433-0.383-0.474-1.044-0.092-1.478l16.095-18.214c0.383-0.434,1.045-0.475,1.479-0.092
			C333.763,88.758,333.883,89.046,333.883,89.336z"/>
	</g>
</g>
<g>
	<g>
		<path fill="#666666" d="M219.765,108.649c0,0.344-0.169,0.68-0.479,0.88c-0.485,0.314-1.134,0.175-1.447-0.311l-13.191-20.416
			c-0.313-0.485-0.175-1.134,0.312-1.447c0.485-0.314,1.134-0.175,1.447,0.311l13.191,20.416
			C219.711,108.258,219.765,108.455,219.765,108.649z"/>
	</g>
	<g>
		<path fill="#666666" d="M221.216,89.336c0,0.247-0.087,0.494-0.263,0.693l-16.094,18.215c-0.383,0.433-1.045,0.475-1.479,0.091
			c-0.433-0.383-0.474-1.044-0.092-1.478l16.095-18.214c0.383-0.434,1.045-0.475,1.479-0.092
			C221.096,88.758,221.216,89.046,221.216,89.336z"/>
	</g>
</g>
<g>
	<g>
		<path fill="#666666" d="M222.431,32.649c0,0.344-0.169,0.68-0.479,0.88c-0.485,0.314-1.134,0.175-1.447-0.311l-13.191-20.416
			c-0.313-0.485-0.175-1.134,0.312-1.447c0.485-0.314,1.134-0.175,1.447,0.311l13.191,20.416
			C222.377,32.258,222.431,32.455,222.431,32.649z"/>
	</g>
	<g>
		<path fill="#666666" d="M223.882,13.336c0,0.247-0.087,0.494-0.263,0.693l-16.094,18.215c-0.383,0.433-1.045,0.475-1.479,0.091
			c-0.433-0.383-0.474-1.044-0.092-1.478l16.095-18.214c0.383-0.434,1.045-0.475,1.479-0.092
			C223.762,12.758,223.882,13.046,223.882,13.336z"/>
	</g>
</g>
<g>
	<g>
		<path fill="#666666" d="M49.679,39.041c0,0.344-0.17,0.68-0.48,0.88c-0.484,0.314-1.133,0.175-1.447-0.311L34.56,19.195
			c-0.313-0.485-0.175-1.134,0.312-1.447c0.485-0.314,1.134-0.175,1.447,0.311l13.192,20.416
			C49.624,38.65,49.679,38.847,49.679,39.041z"/>
	</g>
	<g>
		<path fill="#666666" d="M51.13,19.728c0,0.247-0.088,0.494-0.264,0.693L34.773,38.635c-0.383,0.433-1.045,0.475-1.479,0.091
			c-0.433-0.383-0.474-1.044-0.092-1.478l16.095-18.214c0.383-0.434,1.045-0.475,1.479-0.092
			C51.009,19.149,51.13,19.438,51.13,19.728z"/>
	</g>
</g>
<g>
	<g>
		<path fill="#666666" d="M87.765,108.649c0,0.344-0.169,0.68-0.479,0.88c-0.485,0.314-1.134,0.175-1.447-0.311L72.646,88.803
			c-0.313-0.485-0.175-1.134,0.312-1.447c0.485-0.314,1.134-0.175,1.447,0.311l13.191,20.416
			C87.711,108.258,87.765,108.455,87.765,108.649z"/>
	</g>
	<g>
		<path fill="#666666" d="M89.216,89.336c0,0.247-0.087,0.494-0.263,0.693l-16.094,18.215c-0.383,0.433-1.045,0.475-1.479,0.091
			c-0.433-0.383-0.474-1.044-0.092-1.478l16.095-18.214c0.383-0.434,1.045-0.475,1.479-0.092
			C89.096,88.758,89.216,89.046,89.216,89.336z"/>
	</g>
</g>
<g>
	<g>
		<path fill="#666666" d="M363.765,39.316c0,0.344-0.169,0.68-0.479,0.88c-0.485,0.314-1.134,0.175-1.447-0.311L348.646,19.47
			c-0.313-0.485-0.175-1.134,0.312-1.447c0.485-0.314,1.134-0.175,1.447,0.311l13.191,20.416
			C363.711,38.925,363.765,39.122,363.765,39.316z"/>
	</g>
	<g>
		<path fill="#666666" d="M365.216,20.003c0,0.247-0.087,0.494-0.263,0.693l-16.094,18.215c-0.383,0.433-1.045,0.475-1.479,0.091
			c-0.433-0.383-0.474-1.044-0.092-1.478l16.095-18.214c0.383-0.434,1.045-0.475,1.479-0.092
			C365.096,19.425,365.216,19.713,365.216,20.003z"/>
	</g>
</g>
<g>
	<g>
		<path fill="#666666" d="M413.192,156.484v1.74c0,0.961-0.778,1.74-1.739,1.74c-0.96,0-1.739-0.779-1.739-1.74v-1.74
			c0-0.961,0.779-1.738,1.739-1.738C412.414,154.746,413.192,155.523,413.192,156.484z"/>
	</g>
	<g>
		<path fill="#666666" d="M413.192,58.751v3.62c0,0.96-0.778,1.739-1.739,1.739c-0.96,0-1.739-0.779-1.739-1.739v-3.62
			c0-0.96,0.779-1.739,1.739-1.739C412.414,57.012,413.192,57.791,413.192,58.751z M413.192,69.611v3.62
			c0,0.961-0.778,1.739-1.739,1.739c-0.96,0-1.739-0.778-1.739-1.739v-3.62c0-0.961,0.779-1.739,1.739-1.739
			C412.414,67.872,413.192,68.65,413.192,69.611z M413.192,80.47v3.62c0,0.96-0.778,1.739-1.739,1.739
			c-0.96,0-1.739-0.779-1.739-1.739v-3.62c0-0.961,0.779-1.74,1.739-1.74C412.414,78.73,413.192,79.509,413.192,80.47z
			 M413.192,91.33v3.62c0,0.96-0.778,1.739-1.739,1.739c-0.96,0-1.739-0.779-1.739-1.739v-3.62c0-0.961,0.779-1.74,1.739-1.74
			C412.414,89.59,413.192,90.369,413.192,91.33z M413.192,102.188v3.62c0,0.96-0.778,1.74-1.739,1.74
			c-0.96,0-1.739-0.779-1.739-1.74v-3.62c0-0.96,0.779-1.739,1.739-1.739C412.414,100.449,413.192,101.228,413.192,102.188z
			 M413.192,3.751v3.62c0,0.96-0.778,1.739-1.739,1.739c-0.96,0-1.739-0.779-1.739-1.739v-3.62c0-0.96,0.779-1.739,1.739-1.739
			C412.414,2.012,413.192,2.791,413.192,3.751z M413.192,14.611v3.62c0,0.961-0.778,1.739-1.739,1.739
			c-0.96,0-1.739-0.778-1.739-1.739v-3.62c0-0.961,0.779-1.739,1.739-1.739C412.414,12.872,413.192,13.65,413.192,14.611z
			 M413.192,25.47v3.62c0,0.96-0.778,1.739-1.739,1.739c-0.96,0-1.739-0.779-1.739-1.739v-3.62c0-0.961,0.779-1.74,1.739-1.74
			C412.414,23.73,413.192,24.509,413.192,25.47z M413.192,36.33v3.62c0,0.96-0.778,1.739-1.739,1.739
			c-0.96,0-1.739-0.779-1.739-1.739v-3.62c0-0.961,0.779-1.74,1.739-1.74C412.414,34.59,413.192,35.369,413.192,36.33z
			 M413.192,47.188v3.62c0,0.96-0.778,1.74-1.739,1.74c-0.96,0-1.739-0.779-1.739-1.74v-3.62c0-0.96,0.779-1.739,1.739-1.739
			C412.414,45.449,413.192,46.228,413.192,47.188z M413.192,113.048v3.62c0,0.96-0.778,1.739-1.739,1.739
			c-0.96,0-1.739-0.779-1.739-1.739v-3.62c0-0.961,0.779-1.739,1.739-1.739C412.414,111.309,413.192,112.087,413.192,113.048z
			 M413.192,123.906v3.62c0,0.961-0.778,1.739-1.739,1.739c-0.96,0-1.739-0.778-1.739-1.739v-3.62c0-0.96,0.779-1.739,1.739-1.739
			C412.414,122.167,413.192,122.946,413.192,123.906z M413.192,134.766v3.62c0,0.961-0.778,1.739-1.739,1.739
			c-0.96,0-1.739-0.777-1.739-1.739v-3.62c0-0.96,0.779-1.739,1.739-1.739C412.414,133.026,413.192,133.806,413.192,134.766z
			 M413.192,145.625v3.621c0,0.961-0.778,1.738-1.739,1.738c-0.96,0-1.739-0.777-1.739-1.738v-3.621
			c0-0.961,0.779-1.738,1.739-1.738C412.414,143.886,413.192,144.664,413.192,145.625z"/>
	</g>
	<g>
		<g>
			<polygon fill="#666666" points="425.682,15.3 423.134,17.673 411.457,5.108 399.776,17.673 397.229,15.3 411.457,0 			"/>
		</g>
	</g>
</g>
<g>
	<g>
		<path fill="#666666" d="M57.16,158.581c0,0.584-0.294,1.154-0.827,1.482c-0.816,0.504-1.888,0.251-2.393-0.566
			c-0.014-0.022-0.352-0.57-0.908-1.586c-0.462-0.844-0.152-1.9,0.689-2.362c0.843-0.461,1.9-0.152,2.362,0.69
			c0.507,0.926,0.813,1.426,0.817,1.432C57.076,157.955,57.16,158.271,57.16,158.581z"/>
	</g>
	<g>
		<path fill="#666666" d="M118.876,12.629c0,0.639-0.354,1.253-0.964,1.558c-1.039,0.518-2.082,1.047-3.098,1.573
			c-0.854,0.441-1.903,0.107-2.345-0.746s-0.108-1.903,0.746-2.344c1.032-0.534,2.09-1.071,3.144-1.597
			c0.86-0.429,1.904-0.079,2.333,0.781C118.816,12.104,118.876,12.369,118.876,12.629z M109.588,17.522
			c0,0.611-0.322,1.203-0.894,1.521c-1.019,0.568-2.034,1.145-3.02,1.714c-0.831,0.481-1.896,0.197-2.377-0.634
			c-0.48-0.832-0.196-1.896,0.635-2.377c1.001-0.579,2.032-1.165,3.068-1.742c0.839-0.468,1.898-0.166,2.365,0.673
			C109.516,16.945,109.588,17.236,109.588,17.522z M100.549,22.86c0,0.579-0.29,1.145-0.816,1.476
			c-0.99,0.621-1.973,1.249-2.922,1.868c-0.804,0.525-1.882,0.299-2.407-0.505c-0.526-0.803-0.299-1.882,0.506-2.407
			c0.966-0.631,1.968-1.271,2.976-1.903c0.814-0.51,1.887-0.264,2.397,0.55C100.462,22.225,100.549,22.544,100.549,22.86z
			 M91.816,28.686c0,0.544-0.255,1.08-0.731,1.419c-0.944,0.672-1.886,1.357-2.8,2.037c-0.771,0.573-1.86,0.414-2.434-0.357
			s-0.414-1.861,0.356-2.435c0.934-0.694,1.896-1.395,2.86-2.081c0.782-0.557,1.868-0.374,2.426,0.409
			C91.711,27.985,91.816,28.337,91.816,28.686z M83.468,35.047c0,0.504-0.218,1.004-0.639,1.348c-0.896,0.732-1.788,1.479-2.65,2.22
			c-0.729,0.626-1.826,0.542-2.453-0.187c-0.625-0.729-0.542-1.827,0.187-2.452c0.885-0.759,1.798-1.524,2.716-2.274
			c0.743-0.608,1.839-0.498,2.447,0.246C83.34,34.271,83.468,34.661,83.468,35.047z M75.595,41.987c0,0.459-0.181,0.918-0.539,1.26
			c-0.831,0.792-1.661,1.604-2.466,2.415c-0.677,0.682-1.778,0.686-2.46,0.009c-0.682-0.678-0.687-1.778-0.009-2.461
			c0.827-0.832,1.68-1.668,2.534-2.481c0.695-0.663,1.797-0.636,2.459,0.06C75.436,41.125,75.595,41.556,75.595,41.987z
			 M68.311,49.542c0,0.409-0.143,0.82-0.436,1.15c-0.761,0.863-1.514,1.744-2.238,2.618c-0.613,0.739-1.71,0.843-2.449,0.229
			c-0.74-0.613-0.842-1.709-0.23-2.449c0.748-0.902,1.525-1.811,2.311-2.7c0.636-0.72,1.734-0.789,2.455-0.153
			C68.112,48.581,68.311,49.061,68.311,49.542z M61.75,57.731c0,0.354-0.107,0.71-0.33,1.018c-0.676,0.934-1.337,1.883-1.967,2.822
			c-0.536,0.797-1.617,1.01-2.414,0.473c-0.798-0.535-1.01-1.614-0.475-2.413c0.652-0.971,1.337-1.953,2.036-2.919
			c0.562-0.779,1.649-0.954,2.429-0.391C61.5,56.661,61.75,57.192,61.75,57.731z M56.059,66.546c0,0.293-0.073,0.59-0.229,0.861
			c-0.568,0.994-1.122,2.008-1.646,3.014c-0.445,0.852-1.496,1.181-2.347,0.736c-0.853-0.445-1.183-1.496-0.737-2.348
			c0.545-1.043,1.12-2.096,1.709-3.127c0.477-0.835,1.539-1.125,2.373-0.648C55.744,65.354,56.059,65.942,56.059,66.546z
			 M53.219,150.788c0,0.668-0.387,1.305-1.036,1.592c-0.88,0.389-1.906-0.01-2.295-0.889c-0.473-1.068-0.938-2.174-1.384-3.282
			c-0.357-0.893,0.076-1.904,0.968-2.263c0.891-0.357,1.903,0.075,2.262,0.967c0.43,1.072,0.88,2.139,1.336,3.172
			C53.171,150.313,53.219,150.554,53.219,150.788z M51.386,75.939c0,0.228-0.045,0.46-0.141,0.683
			c-0.447,1.046-0.878,2.116-1.282,3.18c-0.342,0.898-1.347,1.35-2.244,1.008c-0.898-0.342-1.349-1.346-1.008-2.244
			c0.421-1.107,0.87-2.221,1.335-3.31c0.377-0.884,1.399-1.294,2.282-0.917C50.989,74.62,51.386,75.264,51.386,75.939z
			 M49.471,140.979c0,0.732-0.467,1.414-1.201,1.652c-0.913,0.299-1.896-0.201-2.193-1.113c-0.365-1.123-0.718-2.268-1.047-3.402
			c-0.267-0.925,0.265-1.887,1.187-2.155c0.923-0.267,1.888,0.265,2.155,1.187c0.318,1.098,0.659,2.206,1.014,3.292
			C49.442,140.618,49.471,140.8,49.471,140.979z M47.855,85.819c0,0.16-0.022,0.322-0.069,0.484
			c-0.318,1.098-0.616,2.211-0.888,3.312c-0.229,0.933-1.172,1.503-2.104,1.273c-0.933-0.23-1.503-1.172-1.273-2.105
			c0.282-1.146,0.593-2.307,0.925-3.448c0.267-0.923,1.231-1.454,2.154-1.187C47.361,84.37,47.855,85.064,47.855,85.819z
			 M46.716,130.847c0,0.799-0.555,1.52-1.368,1.697c-0.938,0.205-1.865-0.389-2.07-1.328c-0.254-1.158-0.489-2.332-0.701-3.49
			c-0.172-0.944,0.453-1.852,1.398-2.025c0.945-0.172,1.851,0.454,2.023,1.398c0.205,1.119,0.433,2.256,0.678,3.375
			C46.703,130.599,46.716,130.724,46.716,130.847z M45.554,96.056c0,0.092-0.007,0.186-0.021,0.279
			c-0.182,1.121-0.342,2.264-0.479,3.396c-0.114,0.955-0.98,1.635-1.935,1.52c-0.954-0.113-1.636-0.977-1.52-1.934
			c0.142-1.181,0.31-2.371,0.498-3.537c0.153-0.947,1.046-1.592,1.994-1.439C44.946,94.479,45.554,95.218,45.554,96.056z
			 M45.011,120.487c0,0.875-0.659,1.628-1.549,1.727c-0.955,0.105-1.814-0.583-1.92-1.537c-0.131-1.179-0.24-2.373-0.327-3.551
			c-0.068-0.961,0.648-1.791,1.605-1.862c0.958-0.071,1.793,0.648,1.863,1.606c0.084,1.135,0.19,2.287,0.316,3.424
			C45.007,120.358,45.011,120.423,45.011,120.487z M44.509,106.501c0,0.023-0.001,0.048-0.002,0.072
			c-0.046,1.131-0.07,2.285-0.071,3.432c-0.002,0.961-0.782,1.738-1.743,1.736c-0.96-0.002-1.736-0.779-1.736-1.738
			c0-0.002,0-0.002,0-0.004c0.001-1.19,0.027-2.391,0.075-3.567c0.038-0.96,0.849-1.706,1.809-1.667
			C43.775,104.802,44.509,105.573,44.509,106.501z"/>
	</g>
	<g>
		<path fill="#666666" d="M126.823,8.838c0,0.66-0.378,1.291-1.018,1.583c-0.526,0.24-1.05,0.481-1.57,0.723
			c-0.871,0.404-1.905,0.026-2.31-0.846c-0.404-0.871-0.026-1.906,0.846-2.31c0.527-0.245,1.057-0.488,1.59-0.732
			c0.874-0.399,1.906-0.014,2.305,0.86C126.772,8.351,126.823,8.597,126.823,8.838z"/>
	</g>
	<g>
		<g>
			<polygon fill="#666666" points="120.716,26.674 117.485,25.375 123.903,9.468 107.567,4.228 108.634,0.914 128.528,7.299 			"/>
		</g>
	</g>
</g>
<g>
	<g>
		<path fill="#666666" d="M15.964,156.1v1.74c0,0.961-0.778,1.74-1.739,1.74c-0.96,0-1.739-0.779-1.739-1.74v-1.74
			c0-0.961,0.779-1.738,1.739-1.738C15.186,154.361,15.964,155.139,15.964,156.1z"/>
	</g>
	<g>
		<path fill="#666666" d="M15.964,58.367v3.62c0,0.96-0.778,1.739-1.739,1.739c-0.96,0-1.739-0.779-1.739-1.739v-3.62
			c0-0.96,0.779-1.739,1.739-1.739C15.186,56.628,15.964,57.407,15.964,58.367z M15.964,69.227v3.62
			c0,0.961-0.778,1.739-1.739,1.739c-0.96,0-1.739-0.778-1.739-1.739v-3.62c0-0.961,0.779-1.739,1.739-1.739
			C15.186,67.487,15.964,68.266,15.964,69.227z M15.964,80.086v3.62c0,0.96-0.778,1.739-1.739,1.739
			c-0.96,0-1.739-0.779-1.739-1.739v-3.62c0-0.961,0.779-1.74,1.739-1.74C15.186,78.346,15.964,79.125,15.964,80.086z
			 M15.964,90.945v3.62c0,0.96-0.778,1.739-1.739,1.739c-0.96,0-1.739-0.779-1.739-1.739v-3.62c0-0.961,0.779-1.74,1.739-1.74
			C15.186,89.206,15.964,89.984,15.964,90.945z M15.964,101.804v3.62c0,0.96-0.778,1.74-1.739,1.74c-0.96,0-1.739-0.78-1.739-1.74
			v-3.62c0-0.96,0.779-1.739,1.739-1.739C15.186,100.065,15.964,100.844,15.964,101.804z M15.964,112.664v3.619
			c0,0.961-0.778,1.74-1.739,1.74c-0.96,0-1.739-0.779-1.739-1.74v-3.619c0-0.961,0.779-1.74,1.739-1.74
			C15.186,110.924,15.964,111.703,15.964,112.664z M15.964,123.521v3.621c0,0.961-0.778,1.738-1.739,1.738
			c-0.96,0-1.739-0.777-1.739-1.738v-3.621c0-0.959,0.779-1.738,1.739-1.738C15.186,121.783,15.964,122.562,15.964,123.521z
			 M15.964,134.381v3.621c0,0.961-0.778,1.738-1.739,1.738c-0.96,0-1.739-0.777-1.739-1.738v-3.621c0-0.959,0.779-1.738,1.739-1.738
			C15.186,132.643,15.964,133.422,15.964,134.381z M15.964,145.24v3.621c0,0.961-0.778,1.738-1.739,1.738
			c-0.96,0-1.739-0.777-1.739-1.738v-3.621c0-0.961,0.779-1.738,1.739-1.738C15.186,143.502,15.964,144.279,15.964,145.24z"/>
	</g>
	<g>
		<path fill="#666666" d="M15.964,49.388v1.74c0,0.96-0.778,1.739-1.739,1.739c-0.96,0-1.739-0.779-1.739-1.739v-1.74
			c0-0.96,0.779-1.739,1.739-1.739C15.186,47.649,15.964,48.428,15.964,49.388z"/>
	</g>
	<g>
		<g>
			<polygon fill="#666666" points="28.453,60.916 25.905,63.289 14.229,50.724 2.548,63.289 0,60.916 14.229,45.616 			"/>
		</g>
	</g>
</g>
</svg>
