<?xml version="1.0" encoding="utf-8"?>
<!-- Generator: Adobe Illustrator 16.0.0, SVG Export Plug-In . SVG Version: 6.00 Build 0)  -->
<!DOCTYPE svg PUBLIC "-//W3C//DTD SVG 1.1//EN" "http://www.w3.org/Graphics/SVG/1.1/DTD/svg11.dtd">
<svg version="1.1" id="Layer_1" xmlns="http://www.w3.org/2000/svg" xmlns:xlink="http://www.w3.org/1999/xlink" x="0px" y="0px"
	 width="234.904px" height="297.308px" viewBox="0 0 234.904 297.308" enable-background="new 0 0 234.904 297.308"
	 xml:space="preserve">
<g>
	<g>
		<g>
			<path fill="#676767" d="M11.751,297.308C5.262,297.302,0,292.042,0,285.557V54.16c0-6.489,5.262-11.745,11.751-11.75h26.956
				c1.37,0,2.487,1.113,2.487,2.486c0,1.37-1.117,2.48-2.487,2.48H11.751c-3.731,0.006-6.777,3.052-6.783,6.783v231.397
				c0.006,3.731,3.052,6.771,6.783,6.777h211.401c3.725-0.007,6.771-3.052,6.778-6.777V54.16c-0.008-3.731-3.054-6.777-6.778-6.783
				h-26.969c-1.37,0.006-2.486-1.11-2.486-2.48c0-1.373,1.116-2.486,2.486-2.486h26.969c6.481,0.005,11.743,5.261,11.752,11.75
				v231.397c-0.009,6.488-5.271,11.745-11.752,11.751H11.751z"/>
		</g>
	</g>
	<path fill="#676767" d="M190.868,37.905c1.456,0.274,3.105,0.985,4.713,2.264c1.544,1.253,3.083,3.303,3.092,6.026
		c0,1.533,0,20.402,0,20.402c-0.015,4.157-3.381,7.52-7.533,7.525H43.758c-4.159-0.005-7.525-3.368-7.531-7.525
		c0,0,0-18.869,0-20.402c0-2.723,1.539-4.773,3.092-6.026c1.599-1.279,3.248-1.99,4.707-2.264c4.368-0.774,9.306-0.882,14.351-0.888
		c2.652,0,5.333,0.043,7.962,0.043c7.045,0.011,13.754-0.294,18.272-1.918c4.517-1.761,6.646-3.814,6.788-9.092
		C91.398,11.656,103.063,0,117.448,0c14.388,0,26.049,11.656,26.049,26.049c0.14,5.272,2.267,7.322,6.783,9.092
		c4.514,1.624,11.23,1.924,18.272,1.913c2.629,0,5.313-0.031,7.956-0.031C181.56,37.028,186.5,37.146,190.868,37.905z M190.009,42.8
		c-3.823-0.673-8.536-0.808-13.5-0.808c-2.609,0-5.292,0.031-7.956,0.031c-7.179-0.014-14.236-0.202-19.935-2.198
		c-5.706-1.85-10.236-6.546-10.091-13.777c-0.026-11.65-9.436-21.062-21.079-21.079c-11.645,0.017-21.059,9.435-21.076,21.079
		c0.137,7.231-4.394,11.927-10.1,13.782c-5.698,1.996-12.761,2.184-19.935,2.198c-2.675,0-5.358-0.043-7.962-0.043
		c-4.958,0-9.672,0.135-13.491,0.813c-0.386,0.043-1.616,0.525-2.42,1.217c-0.869,0.719-1.273,1.43-1.273,2.178
		c0,1.533,0,20.402,0,20.402c0.005,1.387,1.173,2.555,2.566,2.555H191.14c1.387,0,2.555-1.168,2.56-2.555c0,0,0-18.869,0-20.402
		c0.007-0.748-0.404-1.459-1.271-2.178C191.621,43.326,190.396,42.844,190.009,42.8z"/>
	<g>
		<g>
			<path fill="#676767" d="M28.944,277.989c-4.971-0.014-8.986-4.036-8.995-8.994V70.717c0.009-4.962,4.03-8.981,8.995-8.993
				l9.763,0.006c1.377,0,2.484,1.11,2.484,2.484c0,1.37-1.107,2.481-2.484,2.481h-9.763c-2.203,0.005-4.025,1.826-4.025,4.022
				v198.278c0,2.188,1.827,4.021,4.025,4.021h177.008c2.197,0,4.019-1.832,4.025-4.021V70.717c-0.007-2.196-1.828-4.017-4.025-4.022
				h-9.764c-1.375,0.005-2.491-1.111-2.491-2.481c0-1.379,1.116-2.49,2.491-2.49h9.764c4.965,0.012,8.98,4.031,8.992,8.993v198.278
				c-0.006,4.958-4.027,8.98-8.992,8.994H28.944z"/>
		</g>
	</g>
	<g>
		<g>
			<path fill="#676767" d="M57.04,124.071l-8.242-8.63c-0.944-0.987-0.915-2.561,0.081-3.511c0.984-0.951,2.566-0.916,3.511,0.077
				l6.106,6.395l16.112-23.894c0.762-1.133,2.307-1.438,3.444-0.67c1.134,0.762,1.437,2.309,0.672,3.448l-17.83,26.458
				c-0.424,0.622-1.098,1.019-1.851,1.084c-0.069,0.006-0.137,0.008-0.205,0.008C58.159,124.835,57.511,124.565,57.04,124.071z"/>
		</g>
		<g>
			<path fill="#676767" d="M45.747,133.548c-2.994-0.012-5.396-2.421-5.407-5.407v-25.826c0.012-2.988,2.413-5.395,5.407-5.41
				h18.812c1.37,0.006,2.49,1.116,2.49,2.49c0,1.37-1.12,2.48-2.49,2.48H45.747c-0.226,0-0.439,0.214-0.439,0.439v25.826
				c0,0.22,0.214,0.437,0.439,0.437h25.817c0.229,0,0.44-0.211,0.44-0.437v-14.313c0-1.374,1.115-2.486,2.483-2.486
				c1.37,0,2.489,1.113,2.489,2.486v14.313c-0.009,2.986-2.415,5.396-5.413,5.407H45.747z"/>
		</g>
	</g>
	<g>
		<g>
			<path fill="#676767" d="M57.04,183.994l-8.238-8.631c-0.948-0.986-0.916-2.557,0.074-3.505c0.993-0.953,2.566-0.916,3.52,0.08
				l6.105,6.392l16.107-23.894c0.764-1.137,2.31-1.441,3.447-0.674c1.137,0.766,1.434,2.311,0.671,3.448l-17.832,26.452
				c-0.424,0.631-1.1,1.028-1.851,1.09c-0.074,0.006-0.148,0.008-0.22,0.008C58.15,184.76,57.508,184.485,57.04,183.994z"/>
		</g>
		<g>
			<path fill="#676767" d="M45.747,193.474c-2.992-0.012-5.4-2.421-5.407-5.41v-25.821c0.007-2.99,2.415-5.396,5.407-5.411h18.812
				c1.37,0,2.484,1.112,2.484,2.489c0,1.369-1.114,2.48-2.484,2.48H45.747c-0.223,0-0.434,0.215-0.442,0.441v25.821
				c0.009,0.227,0.22,0.44,0.442,0.44h25.817c0.229,0,0.434-0.214,0.443-0.44v-14.31c0-1.377,1.11-2.484,2.48-2.484
				s2.489,1.107,2.489,2.484v14.31c-0.012,2.989-2.421,5.398-5.413,5.41H45.747z"/>
		</g>
	</g>
	<g>
		<g>
			<path fill="#676767" d="M57.037,243.919l-8.239-8.628c-0.944-0.991-0.912-2.561,0.078-3.509c0.993-0.95,2.569-0.919,3.517,0.074
				l6.108,6.396l16.107-23.891c0.764-1.14,2.307-1.442,3.447-0.674c1.131,0.764,1.434,2.31,0.669,3.449l-17.828,26.456
				c-0.423,0.625-1.104,1.022-1.85,1.086c-0.074,0.004-0.146,0.009-0.22,0.009C58.153,244.688,57.508,244.41,57.037,243.919z"/>
		</g>
		<g>
			<path fill="#676767" d="M45.747,253.399c-2.992-0.01-5.4-2.421-5.412-5.408v-25.824c0.012-2.992,2.42-5.396,5.412-5.406h18.812
				c1.374,0,2.49,1.11,2.49,2.482c0,1.37-1.116,2.487-2.49,2.487H45.747c-0.229,0-0.439,0.214-0.439,0.437v25.824
				c0,0.225,0.211,0.438,0.439,0.438h25.817c0.229,0,0.44-0.214,0.44-0.438v-14.313c0-1.372,1.115-2.484,2.483-2.484
				c1.37,0,2.489,1.112,2.489,2.484v14.313c-0.006,2.987-2.415,5.398-5.413,5.408H45.747z"/>
		</g>
	</g>
	<g>
		<path fill="#676767" d="M92.213,130.625c-1.374,0-2.486-1.114-2.486-2.486c0-1.373,1.112-2.49,2.486-2.49h94.339
			c1.37,0,2.478,1.117,2.478,2.49c0,1.373-1.107,2.486-2.478,2.486H92.213z"/>
	</g>
	<g>
		<path fill="#676767" d="M92.21,117.471c-1.371,0-2.483-1.117-2.483-2.487s1.112-2.486,2.483-2.486h71.687
			c1.37,0,2.478,1.116,2.478,2.486s-1.107,2.487-2.478,2.487H92.21z"/>
	</g>
	<g>
		<g>
			<path fill="#676767" d="M92.21,190.55c-1.367,0-2.481-1.116-2.481-2.486c0-1.371,1.114-2.485,2.481-2.485h80.696
				c1.376,0,2.489,1.114,2.489,2.485c0,1.37-1.113,2.486-2.489,2.486H92.21z"/>
		</g>
		<g>
			<path fill="#676767" d="M92.213,177.396c-1.374,0-2.486-1.116-2.486-2.485c0-1.374,1.112-2.488,2.486-2.488h94.336
				c1.367,0,2.48,1.114,2.48,2.488c0,1.369-1.113,2.485-2.48,2.485H92.213z"/>
		</g>
	</g>
	<g>
		<g>
			<path fill="#676767" d="M92.213,250.475c-1.374,0-2.486-1.112-2.486-2.484c0-1.374,1.112-2.487,2.486-2.487h94.336
				c1.373,0,2.48,1.113,2.48,2.487c0,1.372-1.107,2.484-2.48,2.484H92.213z"/>
		</g>
		<g>
			<path fill="#676767" d="M92.21,237.326c-1.371,0-2.481-1.117-2.481-2.487c0-1.374,1.11-2.487,2.481-2.487h89.466
				c1.37,0,2.487,1.113,2.487,2.487c0,1.37-1.117,2.487-2.487,2.487H92.21z"/>
		</g>
	</g>
	<path fill="#676767" d="M117.457,13.965c-6.681,0-12.076,5.407-12.076,12.078c0,6.674,5.396,12.081,12.076,12.081
		c6.675,0,12.075-5.407,12.075-12.081C129.532,19.372,124.132,13.965,117.457,13.965z M117.457,33.155
		c-3.929-0.006-7.103-3.183-7.108-7.111c0.006-3.928,3.18-7.103,7.108-7.108c3.922,0.006,7.103,3.181,7.113,7.108
		C124.56,29.966,121.379,33.149,117.457,33.155z"/>
</g>
</svg>
