<?xml version="1.0" encoding="utf-8"?>
<!-- Generator: Adobe Illustrator 18.0.0, SVG Export Plug-In . SVG Version: 6.00 Build 0)  -->
<!DOCTYPE svg PUBLIC "-//W3C//DTD SVG 1.1//EN" "http://www.w3.org/Graphics/SVG/1.1/DTD/svg11.dtd">
<svg version="1.1" id="Layer_1" xmlns="http://www.w3.org/2000/svg" xmlns:xlink="http://www.w3.org/1999/xlink" x="0px" y="0px"
	 viewBox="0 0 1920 2665.9" enable-background="new 0 0 1920 2665.9" xml:space="preserve">
<polyline fill="none" stroke="#000000" stroke-width="2" stroke-miterlimit="10" points="160,539.7 1760,539.7 173.5,2126.2 
	1760,2126.2 "/>
<circle fill="#FFC107" cx="532" cy="539.7" r="66"/>
<circle fill="#FFC107" cx="1248" cy="539.7" r="66"/>
<text transform="matrix(1 0 0 1 373.8782 358.7626)"><tspan x="0" y="0" font-family="'SegoeUI-Italic'" font-size="50" letter-spacing="-1"> Introduction to</tspan><tspan x="-10.9" y="60" font-family="'SegoeUI-Italic'" font-size="50" letter-spacing="-1">Project Manager</tspan></text>
<text transform="matrix(1 0 0 1 510.4149 555.238)" font-family="'SegoeUI-Semibold'" font-size="45">01</text>
<text transform="matrix(1 0 0 1 1222.97 555.2378)" font-family="'SegoeUI-Semibold'" font-size="45">02</text>
<g>
	<circle fill="#FFC107" cx="1494.5" cy="804.9" r="66"/>
	<g>
		<text transform="matrix(1 0 0 1 1469.5225 823.2679)" font-family="'SegoeUI-Semibold'" font-size="45">03</text>
	</g>
</g>
<g>
	<g>
		<circle fill="#FFC107" cx="1142.5" cy="1156.9" r="66"/>
		<text transform="matrix(1 0 0 1 1116.9977 1175.2681)" font-family="'SegoeUI-Semibold'" font-size="45">04</text>
	</g>
</g>
<g>
	<circle fill="#FFC107" cx="791" cy="1508.9" r="66"/>
	<g>
		<text transform="matrix(1 0 0 1 766.0049 1527.2679)" font-family="'SegoeUI-Semibold'" font-size="45">05</text>
	</g>
</g>
<g>
	<circle fill="#FFC107" cx="440.5" cy="1860.9" r="66"/>
	<g>
		<text transform="matrix(1 0 0 1 415.4355 1876.4733)" font-family="'SegoeUI-Semibold'" font-size="45">06</text>
	</g>
</g>
<g>
	<circle fill="#FFC107" cx="1388" cy="2126.2" r="66"/>
	<g>
		<text transform="matrix(1 0 0 1 1362.9922 2141.7087)" font-family="'SegoeUI-Semibold'" font-size="45">08</text>
	</g>
</g>
<g>
	<circle fill="#FFC107" cx="676" cy="2126.2" r="66"/>
	<g>
		<text transform="matrix(1 0 0 1 650.9952 2141.7087)" font-family="'SegoeUI-Semibold'" font-size="45">07</text>
	</g>
</g>
<text transform="matrix(1 0 0 1 998.91 358.7625)"><tspan x="0" y="0" font-family="'SegoeUI-Italic'" font-size="50" letter-spacing="-1"> Understanding Business</tspan><tspan x="-15.8" y="60" font-family="'SegoeUI-Italic'" font-size="50" letter-spacing="-1">Needs, Wants and Desires</tspan></text>
<text transform="matrix(1 0 0 1 599.1423 2274.97)" font-family="'SegoeUI-Italic'" font-size="50" letter-spacing="-1">Execute</text>
<text transform="matrix(1 0 0 1 1264.481 2274.97)"><tspan x="0" y="0" font-family="'SegoeUI-Italic'" font-size="50" letter-spacing="-1">Follow up &amp;</tspan><tspan x="-20.9" y="60" font-family="'SegoeUI-Italic'" font-size="50" letter-spacing="-1">final learnings</tspan></text>
<text transform="matrix(1 0 0 1 576.6116 798.1878)"><tspan x="0" y="0" font-family="'SegoeUI-Italic'" font-size="50" letter-spacing="-1">Select Services to Satisfy those Business</tspan><tspan x="0" y="60" font-family="'SegoeUI-Italic'" font-size="50" letter-spacing="-1">Needs, Wants and Desires</tspan></text>
<text transform="matrix(1 0 0 1 255.5417 1150.1838)"><tspan x="0" y="0" font-family="'SegoeUI-Italic'" font-size="50" letter-spacing="-1">Strategize and Personalize Selected</tspan><tspan x="0" y="60" font-family="'SegoeUI-Italic'" font-size="50" letter-spacing="-1">Services to Achieve Desired Outcome</tspan></text>
<text transform="matrix(1 0 0 1 916.5346 1494.1838)"><tspan x="0" y="0" font-family="'SegoeUI-Italic'" font-size="50" letter-spacing="-1">Prioritize Tasks and Create Timelines</tspan><tspan x="0" y="60" font-family="'SegoeUI-Italic'" font-size="50" letter-spacing="-1">and Deadlines</tspan></text>
<text transform="matrix(1 0 0 1 550.5346 1842.1838)"><tspan x="0" y="0" font-family="'SegoeUI-Italic'" font-size="50" letter-spacing="-1">Touch Base and Follow Up as Many Times Needed</tspan><tspan x="0" y="60" font-family="'SegoeUI-Italic'" font-size="50" letter-spacing="-1">before Execution</tspan></text>
</svg>
