<?xml version="1.0" encoding="utf-8"?>
<!-- Generator: Adobe Illustrator 18.0.0, SVG Export Plug-In . SVG Version: 6.00 Build 0)  -->
<!DOCTYPE svg PUBLIC "-//W3C//DTD SVG 1.1//EN" "http://www.w3.org/Graphics/SVG/1.1/DTD/svg11.dtd">
<svg version="1.1" id="Layer_1" xmlns="http://www.w3.org/2000/svg" xmlns:xlink="http://www.w3.org/1999/xlink" x="0px" y="0px"
	 viewBox="0 328.6 595.3 184.8" enable-background="new 0 328.6 595.3 184.8" xml:space="preserve">
<g>
	<path d="M132.4,393.6c-0.5-7.2,0.2-14.1,2.2-20.7c2.2-6.4,5.2-12.3,9.4-17c4.2-4.9,9.1-8.6,15.3-11.6c5.9-2.7,12.3-4.2,19.5-4.2
		c6.9,0,13.6,1.2,20,3.9c6.2,2.7,11.8,6.4,16.5,10.9c4.7,4.4,8.6,9.9,11.3,15.8c3,5.9,4.4,12.3,4.7,19.2c0.2,6.9-0.7,13.3-3.2,19.5
		c-2.5,6.2-5.7,11.6-9.9,16.3s-9.1,8.6-15,11.6c-5.7,3-11.8,4.7-18.5,5.2c-6.7,0.5-13.1-0.5-19-2.7c-6.2-2.2-11.3-5.7-16.3-10.1
		c-4.7-4.4-8.6-9.6-11.6-16C134.7,407.6,132.9,400.7,132.4,393.6z M158.1,392.3c0.2,3.5,1,6.7,2.5,9.9c1.5,3,3.2,5.7,5.7,7.9
		c2.2,2.2,4.9,3.9,7.9,5.2c3,1.2,5.9,1.7,9.1,1.7c3.2-0.2,6.2-1,8.9-2.5c2.7-1.5,5.2-3.5,7.2-5.9c2-2.5,3.7-5.2,4.7-8.1
		c1-3,1.5-6.2,1.2-9.6c-0.2-3.2-1-6.4-2.2-9.6c-1.5-3-3.2-5.7-5.4-7.9c-2.2-2.2-4.9-3.9-7.9-5.4c-3-1.2-6.2-2-9.4-2
		c-3.2,0-6.4,0.7-9.1,2.2c-2.7,1.5-5.2,3.5-7.2,5.9c-2,2.5-3.5,5.2-4.4,8.4C158.3,385.4,157.8,388.9,158.1,392.3z"/>
	<path d="M240.5,389.9c-0.2-6.7,0.7-13.1,3.2-19.2c2.5-5.9,5.9-11.1,10.1-15.5c4.4-4.4,9.6-7.6,15.8-10.1c6.2-2.5,12.6-3.5,19.5-3.2
		c6.9,0.2,13.6,2,19.7,4.7c6.2,2.7,11.6,6.4,16,10.9c4.4,4.4,8.1,9.6,10.6,15.3c2.7,5.7,3.9,11.8,3.9,18c0,6.2-1.5,12.3-3.9,17.8
		c-2.7,5.7-6.2,10.4-10.6,14.8c-4.4,4.2-9.6,7.6-15.5,10.1c-5.9,2.5-12.1,3.9-18.7,4.2c-6.7,0.2-12.8-1-19-3.5
		c-5.9-2.5-11.1-5.7-15.8-10.1c-4.4-4.2-8.1-9.4-10.9-15.3C242.2,402.9,240.7,396.5,240.5,389.9z M266.4,389.6c0,3.2,0.7,6.4,2,9.1
		c1.2,3,3,5.4,5.2,7.6s4.7,3.9,7.6,5.2s5.9,2,9.1,2s6.2-0.7,9.1-2c2.7-1.2,5.4-3,7.4-5.2c2.2-2.2,3.7-4.7,4.9-7.4
		c1.2-2.7,1.7-5.7,1.7-8.9c0-3-0.7-5.9-2-8.9c-1.2-3-3-5.4-5.2-7.6c-2.2-2.2-4.7-3.9-7.6-5.4c-3-1.5-5.9-2.2-9.4-2.2
		c-3.2,0-6.4,0.5-9.1,1.7c-3,1.2-5.4,3-7.4,5.2c-2.2,2.2-3.7,4.7-4.9,7.6C266.9,383.4,266.4,386.7,266.4,389.6z"/>
	<path d="M458.8,359.5c-1.5,25.4-3,50.8-4.7,76.2c0,0.7-0.5,1.5-1,2c-0.7,0.5-1.5,0.7-2.2,0.7c-7.6-0.5-11.6-0.5-19.2-1
		c-0.7,0-1.5-0.2-2.2-1c-0.5-0.5-0.7-1.2-0.7-2c0.7-14.6,1-22,1.7-36.8c0-0.7-0.2-1.2-1.2-1.2c-0.7-0.2-1.5,0-2,0.7
		c-9.4,11.8-14.1,17.8-23.2,30.1c-0.5,0.5-1.2,1-2,0.7c-1,0-1.7-0.2-2.2-1c-8.1-12.8-12.3-19.5-21-32.8c-0.5-0.7-1-1-1.7-1
		c-0.7,0-1.2,0.5-1.2,1.2c-0.2,15.3-0.5,22.9-1,38.2c0,0.7-0.2,1.5-1,2c-0.5,0.5-1.2,0.7-2.2,0.7c-7.6,0-11.6-0.2-19.2-0.2
		c-0.7,0-1.5-0.2-2.2-0.7c-0.5-0.5-1-1.2-1-2c0.2-27.6,0.7-55,1-82.6c0-0.7,0.2-1.5,1-2c0.7-0.5,1.5-0.7,2.2-0.7
		c7.4,0.5,11.1,0.7,18.5,1.2c1,0,1.7,0.5,2.7,1c1,0.5,1.7,1.2,2,1.7c9.9,14.1,14.8,21.2,24.4,35c0.5,0.7,1,1,1.7,1
		c0.7,0,1.2-0.2,1.7-0.7c10.6-12.3,15.8-18.5,26.6-30.3c0.5-0.5,1.2-1,2.2-1.5c1-0.2,2-0.5,2.7-0.5c7.4,0.7,11.1,1.2,18.5,2
		c1,0,1.7,0.5,2.2,1C458.8,358.3,459.1,358.8,458.8,359.5z"/>
	<path d="M586.4,468.6c-8.4-8.1-12.6-12.3-21.2-20.7c-1-1-3-0.5-3,0.7c-0.2,3-0.5,4.4-0.7,7.4c0,0.7-1,1.2-2,1.2
		c-165.5-13.6-332.3-10.4-497.1,10.4c-0.7,0-1.2,0.2-1.7-0.5c-0.5-0.7-0.2-1.5,0.2-2.2c19.5-33.3,40.2-65.9,62.7-97.2
		c0.5-0.7,1.2-1.7,1.5-2.7c0.2-1.2,0.7-2.2,0.7-3c-0.5-6.4-0.7-9.4-1.2-15.8c0-1-0.7-1.2-1.2-2c-0.7-0.7-1.7-0.5-2.7-0.5
		c-36.5,1.2-72.5,3.2-108.5,5.7c-1,0-2,0-2.5,0.7c-0.5,0.7-1.2,1.2-1,2.2c1,8.1,1.5,12.3,2.5,20.5c0.2,1,1,1.5,1.5,2.2
		c0.7,0.7,2,0.7,2.7,0.7c23.4-2.2,46.9-3.9,70.6-5.4c1,0,1.7,0.5,2,1.5c0.2,0.7,0.2,1.7-0.2,2.5c-21.7,32.6-41.9,65.9-60.7,100.2
		c-0.5,1-1,2-1.5,3.2c-0.2,1.2-0.7,2.5-0.5,3.5c0.7,6.7,1.2,9.9,2.2,16.5c0.2,1,1,2.2,1.5,3c0.7,0.5,1.7,1.2,2.7,1.2
		c173.9-27.9,350.3-35.8,526.2-24.7c1,0,1.7,0.7,1.5,1.5c-0.2,3-0.5,4.4-0.7,7.2c-0.2,1.2,1.7,2,2.7,1.2c10.1-6.9,15-10.1,25.4-16.5
		C586.9,470,586.9,469.1,586.4,468.6z"/>
	<g>
		<path d="M486,385.7c-2.5-0.2-3.9-0.5-6.4-0.7c-0.2,0-0.5-0.2-0.7-0.2c-0.2-0.2-0.2-0.5-0.2-0.7c0.7-9.9,1-14.6,1.7-24.4
			c0-0.2,0.2-0.5,0.2-0.5c0.2-0.2,0.5-0.2,0.7-0.2c2.5,0.2,3.9,0.5,6.4,0.7c0.2,0,0.5,0.2,0.7,0.2c0.2,0.2,0.2,0.5,0.2,0.7
			c-0.7,9.6-1,14.6-1.7,24.2c0,0.2-0.2,0.5-0.2,0.5C486.4,385.7,486.2,385.7,486,385.7z"/>
		<path d="M515.1,369.6c-2.5-0.2-3.7-0.5-5.9-0.7c-0.2,0-0.5,0-0.7,0.2c-0.2,0.2-0.2,0.2-0.2,0.5c-0.5,6.9-0.7,10.4-1.5,17.5
			c0,0.2-0.2,0.5-0.2,0.5c-0.2,0.2-0.5,0.2-0.7,0.2c-2.5-0.2-3.9-0.5-6.4-0.7c-0.2,0-0.5-0.2-0.7-0.2c-0.2-0.2-0.2-0.5-0.2-0.7
			c0.5-6.9,0.7-10.6,1.5-17.5c0-0.2,0-0.5-0.2-0.7s-0.5-0.2-0.7-0.2c-2.5-0.2-3.7-0.5-6.2-0.7c-0.2,0-0.5-0.2-0.7-0.2
			c-0.2-0.2-0.2-0.5-0.2-0.7c0.2-2,0.2-3,0.2-4.9c0-0.2,0.2-0.5,0.2-0.5c0.2-0.2,0.5-0.2,0.7-0.2c9.1,1.2,13.6,1.7,22.7,3
			c0.2,0,0.5,0.2,0.7,0.2c0.2,0.2,0.2,0.5,0.2,0.7c-0.2,2-0.2,2.7-0.5,4.7c0,0.2-0.2,0.5-0.2,0.5
			C515.6,369.6,515.3,369.6,515.1,369.6z"/>
		<path d="M475.1,407.4c0.2-2,0.7-3.5,1.7-5.2c1-1.5,2.2-3,3.7-3.9s3.2-2,5.2-2.5c2-0.5,4.2-0.7,6.4-0.5c2.2,0.2,4.2,0.7,6.2,1.7
			c2,1,3.5,2,4.9,3.5c1.5,1.2,2.5,3,3.2,4.7c0.7,1.7,1,3.5,0.7,5.2c-0.2,1.7-0.7,3.5-1.7,4.9c-1,1.5-2.2,2.7-3.7,3.9
			c-1.5,1-3.2,2-5.2,2.5c-2,0.5-4.2,0.7-6.2,0.5c-2.2-0.2-4.2-0.7-6.2-1.5c-2-1-3.5-2-4.9-3.2c-1.2-1.2-2.5-3-3.2-4.7
			C475.3,411.1,475.1,409.1,475.1,407.4z M483.5,408.1c0,1,0,1.7,0.5,2.7c0.2,0.7,0.7,1.5,1.5,2.2c0.7,0.7,1.5,1.2,2.2,1.7
			c1,0.5,2,0.7,3,0.7c1,0,2,0,3-0.2c1-0.2,1.7-0.7,2.5-1.2c0.7-0.5,1.2-1.2,1.7-2c0.5-0.7,0.7-1.5,0.7-2.5s0-1.7-0.5-2.5
			c-0.2-0.7-0.7-1.5-1.5-2.2c-0.7-0.7-1.5-1.2-2.2-1.7c-1-0.5-2-0.7-3-0.7c-1,0-2,0-3,0.2c-1,0.2-1.7,0.7-2.5,1.2
			c-0.7,0.5-1.2,1.2-1.7,2C484,406.4,483.7,407.1,483.5,408.1z"/>
		<path d="M512.6,399c0-0.2,0.2-0.5,0.2-0.5c0.2-0.2,0.5-0.2,0.7-0.2c2.5,0.2,3.7,0.5,6.4,0.7c0.2,0,0.5,0.2,0.7,0.2
			c0.2,0.2,0.2,0.5,0.2,0.7c-0.5,5.7-0.7,8.4-1.2,14.1c0,1,0,1.7,0.2,2.2c0.2,0.7,0.7,1.2,1.2,1.5c0.5,0.5,1,0.7,1.7,1
			c0.5,0.2,1,0.2,1.5,0.2c0.5,0,1,0,1.7,0c0.5,0,1.2-0.2,1.7-0.5c0.5-0.2,1-0.7,1.5-1.2c0.5-0.5,0.7-1.2,0.7-2.2
			c0.5-5.4,0.7-8.4,1.2-13.8c0-0.2,0.2-0.5,0.2-0.5c0.2-0.2,0.5-0.2,0.7-0.2c2.5,0.2,3.7,0.5,6.4,0.7c0.2,0,0.5,0.2,0.7,0.2
			c0.2,0.2,0.2,0.5,0.2,0.5c-0.5,5.4-0.7,8.1-1.2,13.8c-0.2,1.7-0.7,3-1.5,4.2c-0.7,1.2-1.7,2.2-3,3s-2.7,1.5-4.4,1.7
			s-3.5,0.5-5.7,0.2c-2-0.2-3.7-0.7-5.4-1.2c-1.7-0.7-3-1.5-3.9-2.7c-1-1-2-2.2-2.5-3.7c-0.5-1.5-0.7-3-0.5-4.7
			C511.9,407.4,512.1,404.4,512.6,399z"/>
		<path d="M565.6,410.8c-2.5-0.2-3.5-0.5-5.9-0.7c-0.2,0-0.5,0-0.7,0.2s-0.2,0.2-0.2,0.5c-0.7,6.7-1,10.1-1.7,16.8
			c0,0.2-0.2,0.5-0.2,0.5c-0.2,0.2-0.5,0.2-0.7,0.2c-2.5-0.2-3.7-0.5-6.2-0.7c-0.2,0-0.5-0.2-0.7-0.2c-0.2-0.2-0.2-0.5-0.2-0.5
			c0.7-6.7,1-10.1,1.7-16.8c0-0.2,0-0.5-0.2-0.5c-0.2-0.2-0.5-0.2-0.7-0.2c-2.5-0.2-3.7-0.5-5.9-0.7c-0.2,0-0.5-0.2-0.7-0.2
			c-0.2-0.2-0.2-0.5-0.2-0.5c0.2-1.7,0.2-2.7,0.5-4.7c0-0.2,0.2-0.5,0.2-0.5c0.2-0.2,0.5-0.2,0.7-0.2c8.9,1.2,13.3,1.7,22.4,3
			c0.2,0,0.5,0.2,0.7,0.2c0.2,0.2,0.2,0.5,0.2,0.5c-0.2,1.7-0.2,2.7-0.5,4.4c0,0.2-0.2,0.5-0.2,0.5
			C566.1,410.8,565.9,410.8,565.6,410.8z"/>
	</g>
</g>
</svg>
